<svg width="25" height="25" viewBox="0 0 25 25" fill="none" xmlns="http://www.w3.org/2000/svg">
<path fill-rule="evenodd" clip-rule="evenodd" d="M11.9787 8.85145C11.9787 9.7845 11.6278 10.6363 11.0509 11.2809C11.8606 11.8569 12.4663 12.6753 12.7805 13.618C13.0946 14.5608 13.101 15.579 12.7986 16.5255C12.4962 17.4721 11.9007 18.298 11.0982 18.884C10.2957 19.47 9.32769 19.7857 8.334 19.7856H3.64795C3.23368 19.7856 2.83638 19.621 2.54344 19.3281C2.25051 19.0351 2.08594 18.6378 2.08594 18.2236V5.72742C2.08594 5.31315 2.25051 4.91584 2.54344 4.62291C2.83638 4.32997 3.23368 4.16541 3.64795 4.16541H7.81333C8.91806 4.16541 9.97754 4.60426 10.7587 5.38542C11.5399 6.16658 11.9787 7.22606 11.9787 8.33078V8.85145ZM4.16863 10.4135V6.24809H7.81333C8.3657 6.24809 8.89543 6.46752 9.28601 6.8581C9.67659 7.24868 9.89602 7.77842 9.89602 8.33078V8.85145C9.89602 9.26573 9.73145 9.66303 9.43852 9.95597C9.14558 10.2489 8.74828 10.4135 8.334 10.4135H4.16863ZM4.16863 12.4962H8.334C9.02446 12.4962 9.68663 12.7704 10.1749 13.2587C10.6631 13.7469 10.9374 14.4091 10.9374 15.0995C10.9374 15.79 10.6631 16.4521 10.1749 16.9404C9.68663 17.4286 9.02446 17.7029 8.334 17.7029H4.16863V12.4962Z" fill="#C4B6B6"/>
<path d="M15.623 6.24801C15.623 5.97183 15.7328 5.70696 15.928 5.51167C16.1233 5.31638 16.3882 5.20667 16.6644 5.20667H20.3091C20.5853 5.20667 20.8501 5.31638 21.0454 5.51167C21.2407 5.70696 21.3504 5.97183 21.3504 6.24801C21.3504 6.52419 21.2407 6.78906 21.0454 6.98435C20.8501 7.17964 20.5853 7.28935 20.3091 7.28935H16.6644C16.3882 7.28935 16.1233 7.17964 15.928 6.98435C15.7328 6.78906 15.623 6.52419 15.623 6.24801Z" fill="#C4B6B6"/>
<path fill-rule="evenodd" clip-rule="evenodd" d="M18.4866 8.33081C15.5281 8.33081 13.0195 10.603 13.0195 13.5375V14.5789C13.0195 17.5134 15.5281 19.7856 18.4866 19.7856C20.0642 19.7856 21.2066 19.3316 21.972 18.838C22.4322 18.5422 22.7936 18.1819 23.1414 17.7675C23.2927 17.5402 23.3487 17.2626 23.2974 16.9944C23.246 16.7262 23.0913 16.489 22.8667 16.3337C22.6421 16.1785 22.3655 16.1176 22.0965 16.1644C21.8274 16.2111 21.5875 16.3616 21.4284 16.5835C21.2631 16.7825 21.0661 16.9528 20.8452 17.0875C20.3964 17.3759 19.6414 17.7029 18.4866 17.7029C16.557 17.7029 15.1022 16.245 15.1022 14.5789H22.9123C23.1885 14.5789 23.4534 14.4692 23.6486 14.2739C23.8439 14.0786 23.9536 13.8137 23.9536 13.5375C23.9536 10.603 21.445 8.33081 18.4866 8.33081ZM21.6762 12.4962C21.218 11.308 19.9976 10.4135 18.4866 10.4135C16.9756 10.4135 15.7551 11.308 15.297 12.4962H21.6762Z" fill="#C4B6B6"/>
</svg>
