<svg width="26" height="25" viewBox="0 0 26 25" fill="none" xmlns="http://www.w3.org/2000/svg">
<path fill-rule="evenodd" clip-rule="evenodd" d="M4.45805 11.1611C7.15721 11.385 9.74183 10.8435 11.8818 9.61995C10.8052 8.02078 9.54373 6.55415 8.12358 5.25047C7.14511 5.93708 6.31587 6.81479 5.68588 7.83065C5.05589 8.8465 4.63822 9.97945 4.45805 11.1611V11.1611ZM7.68413 3.05948C6.03721 4.02332 4.67135 5.40159 3.72244 7.05716C2.77353 8.71273 2.27463 10.5879 2.27539 12.4961C2.27539 18.5349 7.17075 23.4303 13.2095 23.4303C19.2483 23.4303 24.1436 18.5349 24.1436 12.4961C24.1436 6.45738 19.2483 1.56203 13.2095 1.56203C11.2672 1.55888 9.35941 2.07556 7.68413 3.05844V3.05948ZM10.0646 4.21849C11.3777 5.4941 12.5564 6.90103 13.5823 8.41719C14.8809 7.29676 15.8886 5.8782 16.5189 4.28306C15.467 3.85968 14.3434 3.64295 13.2095 3.64471C12.1353 3.64352 11.0699 3.83831 10.0657 4.21954L10.0646 4.21849ZM18.3548 5.29316C17.5579 7.20645 16.3014 8.89363 14.6965 10.2052C15.0589 10.8394 15.3953 11.4881 15.7046 12.1494C17.6654 11.3861 19.7866 11.0341 21.9683 11.2142C21.7958 10.0351 21.387 8.90285 20.7662 7.88556C20.1455 6.86827 19.3256 5.98685 18.3558 5.2942L18.3548 5.29316ZM22.0234 13.3094C20.1261 13.1157 18.2538 13.4032 16.5127 14.0707C17.2324 15.9737 17.7093 17.96 17.932 19.9824C19.0799 19.2582 20.0458 18.2798 20.755 17.1227C21.4643 15.9656 21.8979 14.6609 22.0224 13.3094H22.0234ZM15.9253 20.9217C15.7721 18.8869 15.3343 16.8836 14.6247 14.9704C12.4191 16.2377 10.526 18.1319 9.21074 20.3947C10.4499 21.0231 11.8201 21.3496 13.2095 21.3476C14.1571 21.3476 15.0704 21.1987 15.9264 20.9227L15.9253 20.9217ZM7.47482 19.2388C8.99935 16.6626 11.2132 14.4778 13.8187 13.0335C13.5579 12.4759 13.2765 11.9281 12.9752 11.3913C10.4614 12.8408 7.45608 13.4781 4.38828 13.2438C4.58397 15.5717 5.69376 17.7272 7.47482 19.2388V19.2388Z" fill="#C4B6B6"/>
</svg>
