<svg width="26" height="25" viewBox="0 0 26 25" fill="none" xmlns="http://www.w3.org/2000/svg">
<path fill-rule="evenodd" clip-rule="evenodd" d="M2.89062 6.24802C2.89062 5.14329 3.32948 4.08381 4.11064 3.30265C4.8918 2.52149 5.95128 2.08264 7.056 2.08264H19.5521C20.6569 2.08264 21.7163 2.52149 22.4975 3.30265C23.2787 4.08381 23.7175 5.14329 23.7175 6.24802V18.7442C23.7175 19.8489 23.2787 20.9084 22.4975 21.6895C21.7163 22.4707 20.6569 22.9095 19.5521 22.9095H7.056C5.95128 22.9095 4.8918 22.4707 4.11064 21.6895C3.32948 20.9084 2.89063 19.8489 2.89062 18.7442V6.24802ZM7.056 4.16533C6.50364 4.16533 5.9739 4.38476 5.58332 4.77534C5.19274 5.16592 4.97331 5.69566 4.97331 6.24802V18.7442C4.97331 19.2965 5.19274 19.8263 5.58332 20.2168C5.9739 20.6074 6.50364 20.8268 7.056 20.8268H13.3041V13.5374H12.2627C11.9865 13.5374 11.7217 13.4277 11.5264 13.2324C11.3311 13.0371 11.2214 12.7723 11.2214 12.4961C11.2214 12.2199 11.3311 11.955 11.5264 11.7597C11.7217 11.5645 11.9865 11.4547 12.2627 11.4547H13.3041V9.89272C13.3041 8.92609 13.6881 7.99904 14.3716 7.31553C15.0551 6.63201 15.9821 6.24802 16.9488 6.24802H17.5736C17.8498 6.24802 18.1146 6.35773 18.3099 6.55302C18.5052 6.74831 18.6149 7.01318 18.6149 7.28936C18.6149 7.56554 18.5052 7.83041 18.3099 8.0257C18.1146 8.22099 17.8498 8.33071 17.5736 8.33071H16.9488C16.7436 8.33071 16.5405 8.37111 16.351 8.44961C16.1615 8.52811 15.9893 8.64316 15.8443 8.78821C15.6992 8.93326 15.5842 9.10545 15.5057 9.29497C15.4272 9.48448 15.3868 9.6876 15.3868 9.89272V11.4547H17.5736C17.8498 11.4547 18.1146 11.5645 18.3099 11.7597C18.5052 11.955 18.6149 12.2199 18.6149 12.4961C18.6149 12.7723 18.5052 13.0371 18.3099 13.2324C18.1146 13.4277 17.8498 13.5374 17.5736 13.5374H15.3868V20.8268H19.5521C20.1045 20.8268 20.6342 20.6074 21.0248 20.2168C21.4154 19.8263 21.6348 19.2965 21.6348 18.7442V6.24802C21.6348 5.69566 21.4154 5.16592 21.0248 4.77534C20.6342 4.38476 20.1045 4.16533 19.5521 4.16533H7.056Z" fill="#C4B6B6"/>
</svg>
