<svg width="786" height="733" viewBox="0 0 786 733" fill="none" xmlns="http://www.w3.org/2000/svg">
<g clip-path="url(#clip0_0_227)">
<path d="M707.362 654.473H681.181V680.633H707.362V654.473Z" fill="white"/>
<path d="M707.362 628.312H681.181V654.473H707.362V628.312Z" fill="white"/>
<path d="M707.362 602.105H681.181V628.312H707.362V602.105Z" fill="white"/>
<path d="M681.181 680.633H655V706.793H681.181V680.633Z" fill="white"/>
<path d="M681.181 654.473H655V680.633H681.181V654.473Z" fill="white"/>
<path d="M681.181 628.312H655V654.473H681.181V628.312Z" fill="white"/>
<path d="M681.181 602.105H655V628.312H681.181V602.105Z" fill="white"/>
<path d="M681.181 575.945H655V602.105H681.181V575.945Z" fill="white"/>
<path d="M681.181 549.738H655V575.898H681.181V549.738Z" fill="white"/>
<path d="M681.181 523.578H655V549.739H681.181V523.578Z" fill="white"/>
<path d="M655 680.633H628.771V706.793H655V680.633Z" fill="white"/>
<path d="M655 654.473H628.771V680.633H655V654.473Z" fill="white"/>
<path d="M655 628.312H628.771V654.473H655V628.312Z" fill="white"/>
<path d="M655 602.105H628.771V628.312H655V602.105Z" fill="white"/>
<path d="M655 575.945H628.771V602.105H655V575.945Z" fill="white"/>
<path d="M655 549.738H628.771V575.898H655V549.738Z" fill="white"/>
<path d="M655 523.578H628.771V549.739H655V523.578Z" fill="white"/>
<path d="M655 497.371H628.771V523.578H655V497.371Z" fill="white"/>
<path d="M655 471.211H628.771V497.371H655V471.211Z" fill="white"/>
<path d="M628.771 706.84H602.59V733.047H628.771V706.84Z" fill="white"/>
<path d="M628.771 680.633H602.59V706.793H628.771V680.633Z" fill="white"/>
<path d="M628.771 654.473H602.59V680.633H628.771V654.473Z" fill="white"/>
<path d="M628.771 628.312H602.59V654.473H628.771V628.312Z" fill="white"/>
<path d="M628.771 602.105H602.59V628.312H628.771V602.105Z" fill="white"/>
<path d="M628.771 575.945H602.59V602.105H628.771V575.945Z" fill="white"/>
<path d="M628.771 549.738H602.59V575.898H628.771V549.738Z" fill="white"/>
<path d="M628.771 523.578H602.59V549.739H628.771V523.578Z" fill="white"/>
<path d="M628.771 497.371H602.59V523.578H628.771V497.371Z" fill="white"/>
<path d="M628.771 471.211H602.59V497.371H628.771V471.211Z" fill="white"/>
<path d="M628.771 445.051H602.59V471.211H628.771V445.051Z" fill="white"/>
<path d="M628.771 418.844H602.59V445.051H628.771V418.844Z" fill="white"/>
<path d="M602.59 706.84H576.409V733.047H602.59V706.84Z" fill="white"/>
<path d="M602.59 680.633H576.409V706.793H602.59V680.633Z" fill="white"/>
<path d="M602.59 654.473H576.409V680.633H602.59V654.473Z" fill="white"/>
<path d="M602.59 628.312H576.409V654.473H602.59V628.312Z" fill="white"/>
<path d="M602.59 602.105H576.409V628.312H602.59V602.105Z" fill="white"/>
<path d="M602.59 575.945H576.409V602.105H602.59V575.945Z" fill="white"/>
<path d="M602.59 549.738H576.409V575.898H602.59V549.738Z" fill="white"/>
<path d="M602.59 523.578H576.409V549.739H602.59V523.578Z" fill="white"/>
<path d="M602.59 497.371H576.409V523.578H602.59V497.371Z" fill="white"/>
<path d="M602.59 471.211H576.409V497.371H602.59V471.211Z" fill="white"/>
<path d="M602.59 445.051H576.409V471.211H602.59V445.051Z" fill="white"/>
<path d="M602.59 418.844H576.409V445.051H602.59V418.844Z" fill="white"/>
<path d="M576.363 706.84H550.182V733.047H576.363V706.84Z" fill="white"/>
<path d="M576.363 680.633H550.182V706.793H576.363V680.633Z" fill="white"/>
<path d="M576.363 654.473H550.182V680.633H576.363V654.473Z" fill="white"/>
<path d="M576.363 628.312H550.182V654.473H576.363V628.312Z" fill="white"/>
<path d="M576.363 602.105H550.182V628.312H576.363V602.105Z" fill="white"/>
<path d="M576.363 575.945H550.182V602.105H576.363V575.945Z" fill="white"/>
<path d="M576.363 549.738H550.182V575.898H576.363V549.738Z" fill="white"/>
<path d="M576.363 523.578H550.182V549.739H576.363V523.578Z" fill="white"/>
<path d="M576.363 497.371H550.182V523.578H576.363V497.371Z" fill="white"/>
<path d="M576.363 471.211H550.182V497.371H576.363V471.211Z" fill="white"/>
<path d="M576.363 445.051H550.182V471.211H576.363V445.051Z" fill="white"/>
<path d="M576.363 418.844H550.182V445.051H576.363V418.844Z" fill="white"/>
<path d="M576.363 392.683H550.182V418.844H576.363V392.683Z" fill="white"/>
<path d="M576.363 366.524H550.182V392.684H576.363V366.524Z" fill="white"/>
<path d="M550.228 706.84H524V733.047H550.228V706.84Z" fill="white"/>
<path d="M550.228 680.633H524V706.793H550.228V680.633Z" fill="white"/>
<path d="M550.228 654.473H524V680.633H550.228V654.473Z" fill="white"/>
<path d="M550.228 628.312H524V654.473H550.228V628.312Z" fill="white"/>
<path d="M550.228 602.105H524V628.312H550.228V602.105Z" fill="white"/>
<path d="M550.228 575.945H524V602.105H550.228V575.945Z" fill="white"/>
<path d="M550.228 549.738H524V575.898H550.228V549.738Z" fill="white"/>
<path d="M550.228 523.578H524V549.739H550.228V523.578Z" fill="white"/>
<path d="M550.228 497.371H524V523.578H550.228V497.371Z" fill="white"/>
<path d="M550.228 471.211H524V497.371H550.228V471.211Z" fill="white"/>
<path d="M550.228 445.051H524V471.211H550.228V445.051Z" fill="white"/>
<path d="M550.228 418.844H524V445.051H550.228V418.844Z" fill="#E2D7D7"/>
<path d="M550.228 392.683H524V418.844H550.228V392.683Z" fill="#E2D7D7"/>
<path d="M550.228 366.524H524V392.684H550.228V366.524Z" fill="#E2D7D7"/>
<path d="M550.228 340.316H524V366.477H550.228V340.316Z" fill="#E2D7D7"/>
<path d="M550.228 104.734H524V130.941H550.228V104.734Z" fill="#FFC0C0"/>
<path d="M550.228 78.5273H524V104.688H550.228V78.5273Z" fill="white"/>
<path d="M550.228 52.3672H524V78.5273H550.228V52.3672Z" fill="white"/>
<path d="M523.953 706.84H497.771V733.047H523.953V706.84Z" fill="white"/>
<path d="M523.953 680.633H497.771V706.793H523.953V680.633Z" fill="white"/>
<path d="M523.953 654.473H497.771V680.633H523.953V654.473Z" fill="white"/>
<path d="M523.953 628.312H497.771V654.473H523.953V628.312Z" fill="white"/>
<path d="M523.953 602.105H497.771V628.312H523.953V602.105Z" fill="white"/>
<path d="M523.953 575.945H497.771V602.105H523.953V575.945Z" fill="white"/>
<path d="M523.953 549.738H497.771V575.898H523.953V549.738Z" fill="white"/>
<path d="M523.953 523.578H497.771V549.739H523.953V523.578Z" fill="white"/>
<path d="M523.953 497.371H497.771V523.578H523.953V497.371Z" fill="white"/>
<path d="M523.953 471.211H497.771V497.371H523.953V471.211Z" fill="#E2D7D7"/>
<path d="M523.953 445.051H497.771V471.211H523.953V445.051Z" fill="#E2D7D7"/>
<path d="M523.953 418.844H497.771V445.051H523.953V418.844Z" fill="#E2D7D7"/>
<path d="M523.953 392.683H497.771V418.844H523.953V392.683Z" fill="white"/>
<path d="M523.953 366.524H497.771V392.684H523.953V366.524Z" fill="white"/>
<path d="M523.953 340.316H497.771V366.477H523.953V340.316Z" fill="white"/>
<path d="M523.953 314.156H497.771V340.363H523.953V314.156Z" fill="white"/>
<path d="M523.953 287.949H497.771V314.109H523.953V287.949Z" fill="white"/>
<path d="M523.953 261.789H497.771V287.949H523.953V261.789Z" fill="white"/>
<path d="M523.953 130.895H497.771V157.055H523.953V130.895Z" fill="#FFC0C0"/>
<path d="M523.953 104.734H497.771V130.941H523.953V104.734Z" fill="#FFC0C0"/>
<path d="M523.953 78.5273H497.771V104.688H523.953V78.5273Z" fill="white"/>
<path d="M497.771 706.84H471.59V733.047H497.771V706.84Z" fill="white"/>
<path d="M497.771 680.633H471.59V706.793H497.771V680.633Z" fill="white"/>
<path d="M497.771 654.473H471.59V680.633H497.771V654.473Z" fill="white"/>
<path d="M497.771 628.312H471.59V654.473H497.771V628.312Z" fill="white"/>
<path d="M497.771 602.105H471.59V628.312H497.771V602.105Z" fill="white"/>
<path d="M497.771 575.945H471.59V602.105H497.771V575.945Z" fill="white"/>
<path d="M497.771 549.738H471.59V575.898H497.771V549.738Z" fill="#E2D7D7"/>
<path d="M497.771 523.578H471.59V549.739H497.771V523.578Z" fill="#E2D7D7"/>
<path d="M497.771 497.371H471.59V523.578H497.771V497.371Z" fill="#E2D7D7"/>
<path d="M497.771 471.211H471.59V497.371H497.771V471.211Z" fill="#E2D7D7"/>
<path d="M497.771 445.051H471.59V471.211H497.771V445.051Z" fill="#E2D7D7"/>
<path d="M497.771 418.844H471.59V445.051H497.771V418.844Z" fill="#E2D7D7"/>
<path d="M497.771 157.055H471.59V183.215H497.771V157.055Z" fill="#FFC0C0"/>
<path d="M497.771 130.895H471.59V157.055H497.771V130.895Z" fill="#FFC0C0"/>
<path d="M497.771 104.734H471.59V130.941H497.771V104.734Z" fill="white"/>
<path d="M497.771 78.5273H471.59V104.688H497.771V78.5273Z" fill="white"/>
<path d="M471.59 706.84H445.408V733.047H471.59V706.84Z" fill="white"/>
<path d="M471.59 680.633H445.408V706.793H471.59V680.633Z" fill="white"/>
<path d="M471.59 654.473H445.408V680.633H471.59V654.473Z" fill="white"/>
<path d="M471.59 628.312H445.408V654.473H471.59V628.312Z" fill="white"/>
<path d="M471.59 602.105H445.408V628.312H471.59V602.105Z" fill="#E2D7D7"/>
<path d="M471.59 575.945H445.408V602.105H471.59V575.945Z" fill="#E2D7D7"/>
<path d="M471.59 549.738H445.408V575.898H471.59V549.738Z" fill="#E2D7D7"/>
<path d="M471.59 523.578H445.408V549.739H471.59V523.578Z" fill="#E2D7D7"/>
<path d="M471.59 130.895H445.408V157.055H471.59V130.895Z" fill="white"/>
<path d="M471.59 104.734H445.408V130.941H471.59V104.734Z" fill="white"/>
<path d="M445.41 706.84H419.182V733.047H445.41V706.84Z" fill="white"/>
<path d="M445.41 680.633H419.182V706.793H445.41V680.633Z" fill="white"/>
<path d="M445.41 654.473H419.182V680.633H445.41V654.473Z" fill="white"/>
<path d="M445.41 628.312H419.182V654.473H445.41V628.312Z" fill="#E2D7D7"/>
<path d="M445.41 602.105H419.182V628.312H445.41V602.105Z" fill="#E2D7D7"/>
<path d="M445.41 575.945H419.182V602.105H445.41V575.945Z" fill="#E2D7D7"/>
<path d="M445.41 549.738H419.182V575.898H445.41V549.738Z" fill="#E2D7D7"/>
<path d="M419.181 706.84H393V733.047H419.181V706.84Z" fill="white"/>
<path d="M419.181 680.633H393V706.793H419.181V680.633Z" fill="white"/>
<path d="M419.181 654.473H393V680.633H419.181V654.473Z" fill="white"/>
<path d="M419.181 628.312H393V654.473H419.181V628.312Z" fill="#E2D7D7"/>
<path d="M419.181 602.105H393V628.312H419.181V602.105Z" fill="#E2D7D7"/>
<path d="M393 706.84H366.818V733.047H393V706.84Z" fill="white"/>
<path d="M393 680.633H366.818V706.793H393V680.633Z" fill="white"/>
<path d="M393 654.473H366.818V680.633H393V654.473Z" fill="#E2D7D7"/>
<path d="M393 628.312H366.818V654.473H393V628.312Z" fill="#E2D7D7"/>
<path d="M366.771 706.84H340.59V733.047H366.771V706.84Z" fill="white"/>
<path d="M366.771 680.633H340.59V706.793H366.771V680.633Z" fill="white"/>
<path d="M366.771 654.473H340.59V680.633H366.771V654.473Z" fill="#E2D7D7"/>
<path d="M340.636 680.633H314.408V706.793H340.636V680.633Z" fill="white"/>
<path d="M340.636 654.473H314.408V680.633H340.636V654.473Z" fill="#E2D7D7"/>
<path d="M340.636 104.734H314.408V130.941H340.636V104.734Z" fill="#E2D7D7"/>
<path d="M340.636 78.5273H314.408V104.688H340.636V78.5273Z" fill="#E2D7D7"/>
<path d="M340.636 52.3672H314.408V78.5273H340.636V52.3672Z" fill="#E2D7D7"/>
<path d="M314.363 104.734H288.182V130.941H314.363V104.734Z" fill="#E2D7D7"/>
<path d="M314.363 78.5273H288.182V104.688H314.363V78.5273Z" fill="white"/>
<path d="M288.181 104.734H262V130.941H288.181V104.734Z" fill="white"/>
<path d="M288.181 78.5273H262V104.688H288.181V78.5273Z" fill="white"/>
<path d="M262 130.895H235.818V157.055H262V130.895Z" fill="white"/>
<path d="M262 104.734H235.818V130.941H262V104.734Z" fill="white"/>
<path d="M497.771 418.844H471.59V445.051H497.771V418.844Z" fill="white"/>
<path d="M497.771 392.683H471.59V418.844H497.771V392.683Z" fill="white"/>
<path d="M497.771 366.524H471.59V392.684H497.771V366.524Z" fill="white"/>
<path d="M497.771 340.316H471.59V366.477H497.771V340.316Z" fill="white"/>
<path d="M497.771 314.156H471.59V340.363H497.771V314.156Z" fill="white"/>
<path d="M497.771 287.949H471.59V314.109H497.771V287.949Z" fill="white"/>
<path d="M497.771 261.789H471.59V287.949H497.771V261.789Z" fill="white"/>
<path d="M497.771 235.629H471.59V261.789H497.771V235.629Z" fill="white"/>
<path d="M497.771 209.422H471.59V235.629H497.771V209.422Z" fill="white"/>
<path d="M497.771 183.262H471.59V209.422H497.771V183.262Z" fill="white"/>
<path d="M471.591 497.371H445.41V523.578H471.591V497.371Z" fill="white"/>
<path d="M471.591 471.211H445.41V497.371H471.591V471.211Z" fill="white"/>
<path d="M471.591 445.051H445.41V471.211H471.591V445.051Z" fill="white"/>
<path d="M471.591 418.844H445.41V445.051H471.591V418.844Z" fill="white"/>
<path d="M471.591 392.683H445.41V418.844H471.591V392.683Z" fill="white"/>
<path d="M471.591 366.524H445.41V392.684H471.591V366.524Z" fill="white"/>
<path d="M471.591 340.316H445.41V366.477H471.591V340.316Z" fill="white"/>
<path d="M471.591 314.156H445.41V340.363H471.591V314.156Z" fill="white"/>
<path d="M471.591 287.949H445.41V314.109H471.591V287.949Z" fill="white"/>
<path d="M471.591 261.789H445.41V287.949H471.591V261.789Z" fill="white"/>
<path d="M471.591 235.629H445.41V261.789H471.591V235.629Z" fill="white"/>
<path d="M471.591 209.422H445.41V235.629H471.591V209.422Z" fill="white"/>
<path d="M471.591 183.262H445.41V209.422H471.591V183.262Z" fill="white"/>
<path d="M471.591 157.055H445.41V183.215H471.591V157.055Z" fill="white"/>
<path d="M445.41 523.578H419.182V549.739H445.41V523.578Z" fill="white"/>
<path d="M445.41 497.371H419.182V523.578H445.41V497.371Z" fill="white"/>
<path d="M445.41 471.211H419.182V497.371H445.41V471.211Z" fill="white"/>
<path d="M445.41 445.051H419.182V471.211H445.41V445.051Z" fill="white"/>
<path d="M445.41 418.844H419.182V445.051H445.41V418.844Z" fill="white"/>
<path d="M445.41 392.683H419.182V418.844H445.41V392.683Z" fill="white"/>
<path d="M445.41 366.524H419.182V392.684H445.41V366.524Z" fill="white"/>
<path d="M445.41 340.316H419.182V366.477H445.41V340.316Z" fill="white"/>
<path d="M445.41 314.156H419.182V340.363H445.41V314.156Z" fill="white"/>
<path d="M445.41 287.949H419.182V314.109H445.41V287.949Z" fill="white"/>
<path d="M445.41 261.789H419.182V287.949H445.41V261.789Z" fill="white"/>
<path d="M445.41 235.629H419.182V261.789H445.41V235.629Z" fill="white"/>
<path d="M445.41 209.422H419.182V235.629H445.41V209.422Z" fill="white"/>
<path d="M445.41 183.262H419.182V209.422H445.41V183.262Z" fill="white"/>
<path d="M445.41 157.055H419.182V183.215H445.41V157.055Z" fill="white"/>
<path d="M445.41 130.895H419.182V157.055H445.41V130.895Z" fill="white"/>
<path d="M419.181 575.945H393V602.105H419.181V575.945Z" fill="white"/>
<path d="M419.181 549.738H393V575.898H419.181V549.738Z" fill="white"/>
<path d="M419.181 523.578H393V549.739H419.181V523.578Z" fill="white"/>
<path d="M419.181 497.371H393V523.578H419.181V497.371Z" fill="white"/>
<path d="M419.181 471.211H393V497.371H419.181V471.211Z" fill="white"/>
<path d="M419.181 445.051H393V471.211H419.181V445.051Z" fill="white"/>
<path d="M419.181 418.844H393V445.051H419.181V418.844Z" fill="white"/>
<path d="M419.181 392.683H393V418.844H419.181V392.683Z" fill="white"/>
<path d="M419.181 366.524H393V392.684H419.181V366.524Z" fill="white"/>
<path d="M419.181 340.316H393V366.477H419.181V340.316Z" fill="white"/>
<path d="M419.181 314.156H393V340.363H419.181V314.156Z" fill="white"/>
<path d="M419.181 287.949H393V314.109H419.181V287.949Z" fill="white"/>
<path d="M419.181 261.789H393V287.949H419.181V261.789Z" fill="white"/>
<path d="M419.181 235.629H393V261.789H419.181V235.629Z" fill="white"/>
<path d="M419.181 209.422H393V235.629H419.181V209.422Z" fill="white"/>
<path d="M419.181 183.262H393V209.422H419.181V183.262Z" fill="white"/>
<path d="M419.181 157.055H393V183.215H419.181V157.055Z" fill="white"/>
<path d="M419.181 130.895H393V157.055H419.181V130.895Z" fill="white"/>
<path d="M393 602.106H366.818V628.313H393V602.106Z" fill="white"/>
<path d="M393 575.945H366.818V602.105H393V575.945Z" fill="white"/>
<path d="M393 549.738H366.818V575.898H393V549.738Z" fill="white"/>
<path d="M393 523.578H366.818V549.739H393V523.578Z" fill="white"/>
<path d="M393 497.371H366.818V523.578H393V497.371Z" fill="white"/>
<path d="M393 471.211H366.818V497.371H393V471.211Z" fill="white"/>
<path d="M393 445.051H366.818V471.211H393V445.051Z" fill="white"/>
<path d="M393 418.844H366.818V445.051H393V418.844Z" fill="white"/>
<path d="M393 392.683H366.818V418.844H393V392.683Z" fill="white"/>
<path d="M393 366.524H366.818V392.684H393V366.524Z" fill="white"/>
<path d="M393 340.316H366.818V366.477H393V340.316Z" fill="white"/>
<path d="M393 314.156H366.818V340.363H393V314.156Z" fill="white"/>
<path d="M393 287.949H366.818V314.109H393V287.949Z" fill="white"/>
<path d="M393 261.789H366.818V287.949H393V261.789Z" fill="white"/>
<path d="M393 235.629H366.818V261.789H393V235.629Z" fill="white"/>
<path d="M393 209.422H366.818V235.629H393V209.422Z" fill="white"/>
<path d="M393 183.262H366.818V209.422H393V183.262Z" fill="white"/>
<path d="M393 157.055H366.818V183.215H393V157.055Z" fill="white"/>
<path d="M393 130.895H366.818V157.055H393V130.895Z" fill="white"/>
<path d="M366.771 628.312H340.59V654.473H366.771V628.312Z" fill="white"/>
<path d="M366.771 602.106H340.59V628.313H366.771V602.106Z" fill="white"/>
<path d="M366.771 575.945H340.59V602.105H366.771V575.945Z" fill="white"/>
<path d="M366.771 549.738H340.59V575.898H366.771V549.738Z" fill="white"/>
<path d="M366.771 523.578H340.59V549.739H366.771V523.578Z" fill="white"/>
<path d="M366.771 497.371H340.59V523.578H366.771V497.371Z" fill="white"/>
<path d="M366.771 471.211H340.59V497.371H366.771V471.211Z" fill="white"/>
<path d="M366.771 445.051H340.59V471.211H366.771V445.051Z" fill="white"/>
<path d="M366.771 418.844H340.59V445.051H366.771V418.844Z" fill="white"/>
<path d="M366.771 392.683H340.59V418.844H366.771V392.683Z" fill="white"/>
<path d="M366.771 366.524H340.59V392.684H366.771V366.524Z" fill="white"/>
<path d="M366.771 340.316H340.59V366.477H366.771V340.316Z" fill="white"/>
<path d="M366.771 314.156H340.59V340.363H366.771V314.156Z" fill="white"/>
<path d="M366.771 287.949H340.59V314.109H366.771V287.949Z" fill="white"/>
<path d="M366.771 261.789H340.59V287.949H366.771V261.789Z" fill="white"/>
<path d="M366.771 235.629H340.59V261.789H366.771V235.629Z" fill="white"/>
<path d="M366.771 209.422H340.59V235.629H366.771V209.422Z" fill="white"/>
<path d="M366.771 183.262H340.59V209.422H366.771V183.262Z" fill="white"/>
<path d="M366.771 157.055H340.59V183.215H366.771V157.055Z" fill="white"/>
<path d="M366.771 130.895H340.59V157.055H366.771V130.895Z" fill="white"/>
<path d="M340.638 628.312H314.41V654.473H340.638V628.312Z" fill="white"/>
<path d="M340.638 602.106H314.41V628.313H340.638V602.106Z" fill="white"/>
<path d="M340.638 575.945H314.41V602.105H340.638V575.945Z" fill="white"/>
<path d="M340.638 549.738H314.41V575.898H340.638V549.738Z" fill="white"/>
<path d="M340.638 523.578H314.41V549.739H340.638V523.578Z" fill="white"/>
<path d="M340.638 497.371H314.41V523.578H340.638V497.371Z" fill="white"/>
<path d="M340.638 471.211H314.41V497.371H340.638V471.211Z" fill="white"/>
<path d="M340.638 445.051H314.41V471.211H340.638V445.051Z" fill="white"/>
<path d="M340.638 418.844H314.41V445.051H340.638V418.844Z" fill="white"/>
<path d="M340.638 392.683H314.41V418.844H340.638V392.683Z" fill="white"/>
<path d="M340.638 366.524H314.41V392.684H340.638V366.524Z" fill="white"/>
<path d="M340.638 340.316H314.41V366.477H340.638V340.316Z" fill="white"/>
<path d="M340.638 314.156H314.41V340.363H340.638V314.156Z" fill="white"/>
<path d="M340.638 287.949H314.41V314.109H340.638V287.949Z" fill="white"/>
<path d="M340.638 261.789H314.41V287.949H340.638V261.789Z" fill="white"/>
<path d="M340.638 235.629H314.41V261.789H340.638V235.629Z" fill="white"/>
<path d="M340.638 209.422H314.41V235.629H340.638V209.422Z" fill="white"/>
<path d="M340.638 183.262H314.41V209.422H340.638V183.262Z" fill="white"/>
<path d="M340.638 157.055H314.41V183.215H340.638V157.055Z" fill="white"/>
<path d="M340.638 130.895H314.41V157.055H340.638V130.895Z" fill="white"/>
<path d="M314.363 628.312H288.182V654.473H314.363V628.312Z" fill="white"/>
<path d="M314.363 602.106H288.182V628.313H314.363V602.106Z" fill="white"/>
<path d="M314.363 575.945H288.182V602.105H314.363V575.945Z" fill="white"/>
<path d="M314.363 549.738H288.182V575.898H314.363V549.738Z" fill="white"/>
<path d="M314.363 523.578H288.182V549.739H314.363V523.578Z" fill="white"/>
<path d="M314.363 497.371H288.182V523.578H314.363V497.371Z" fill="white"/>
<path d="M314.363 471.211H288.182V497.371H314.363V471.211Z" fill="white"/>
<path d="M314.363 445.051H288.182V471.211H314.363V445.051Z" fill="white"/>
<path d="M314.363 418.844H288.182V445.051H314.363V418.844Z" fill="white"/>
<path d="M314.363 392.683H288.182V418.844H314.363V392.683Z" fill="white"/>
<path d="M314.363 366.524H288.182V392.684H314.363V366.524Z" fill="white"/>
<path d="M314.363 340.316H288.182V366.477H314.363V340.316Z" fill="white"/>
<path d="M314.363 314.156H288.182V340.363H314.363V314.156Z" fill="white"/>
<path d="M314.363 287.949H288.182V314.109H314.363V287.949Z" fill="white"/>
<path d="M314.363 261.789H288.182V287.949H314.363V261.789Z" fill="white"/>
<path d="M314.363 235.629H288.182V261.789H314.363V235.629Z" fill="white"/>
<path d="M314.363 209.422H288.182V235.629H314.363V209.422Z" fill="white"/>
<path d="M314.363 183.262H288.182V209.422H314.363V183.262Z" fill="white"/>
<path d="M314.363 157.055H288.182V183.215H314.363V157.055Z" fill="white"/>
<path d="M314.363 130.895H288.182V157.055H314.363V130.895Z" fill="white"/>
<path d="M288.181 628.312H262V654.473H288.181V628.312Z" fill="white"/>
<path d="M288.181 602.106H262V628.313H288.181V602.106Z" fill="white"/>
<path d="M288.181 575.945H262V602.105H288.181V575.945Z" fill="white"/>
<path d="M288.181 549.738H262V575.898H288.181V549.738Z" fill="white"/>
<path d="M288.181 523.578H262V549.739H288.181V523.578Z" fill="white"/>
<path d="M288.181 497.371H262V523.578H288.181V497.371Z" fill="white"/>
<path d="M288.181 471.211H262V497.371H288.181V471.211Z" fill="white"/>
<path d="M288.181 445.051H262V471.211H288.181V445.051Z" fill="white"/>
<path d="M288.181 418.844H262V445.051H288.181V418.844Z" fill="white"/>
<path d="M288.181 392.683H262V418.844H288.181V392.683Z" fill="white"/>
<path d="M288.181 366.524H262V392.684H288.181V366.524Z" fill="white"/>
<path d="M288.181 340.316H262V366.477H288.181V340.316Z" fill="white"/>
<path d="M288.181 314.156H262V340.363H288.181V314.156Z" fill="white"/>
<path d="M288.181 287.949H262V314.109H288.181V287.949Z" fill="white"/>
<path d="M288.181 261.789H262V287.949H288.181V261.789Z" fill="white"/>
<path d="M288.181 235.629H262V261.789H288.181V235.629Z" fill="white"/>
<path d="M288.181 209.422H262V235.629H288.181V209.422Z" fill="white"/>
<path d="M288.181 183.262H262V209.422H288.181V183.262Z" fill="white"/>
<path d="M288.181 157.055H262V183.215H288.181V157.055Z" fill="white"/>
<path d="M288.181 130.895H262V157.055H288.181V130.895Z" fill="white"/>
<path d="M262 628.312H235.818V654.473H262V628.312Z" fill="white"/>
<path d="M262 602.106H235.818V628.313H262V602.106Z" fill="white"/>
<path d="M262 575.945H235.818V602.105H262V575.945Z" fill="white"/>
<path d="M262 549.738H235.818V575.898H262V549.738Z" fill="white"/>
<path d="M262 523.578H235.818V549.739H262V523.578Z" fill="white"/>
<path d="M262 497.371H235.818V523.578H262V497.371Z" fill="white"/>
<path d="M262 471.211H235.818V497.371H262V471.211Z" fill="white"/>
<path d="M262 445.051H235.818V471.211H262V445.051Z" fill="white"/>
<path d="M262 418.844H235.818V445.051H262V418.844Z" fill="white"/>
<path d="M262 392.683H235.818V418.844H262V392.683Z" fill="white"/>
<path d="M262 366.524H235.818V392.684H262V366.524Z" fill="white"/>
<path d="M262 340.316H235.818V366.477H262V340.316Z" fill="white"/>
<path d="M262 314.156H235.818V340.363H262V314.156Z" fill="white"/>
<path d="M262 287.949H235.818V314.109H262V287.949Z" fill="white"/>
<path d="M262 261.789H235.818V287.949H262V261.789Z" fill="white"/>
<path d="M262 235.629H235.818V261.789H262V235.629Z" fill="white"/>
<path d="M262 209.422H235.818V235.629H262V209.422Z" fill="white"/>
<path d="M262 183.262H235.818V209.422H262V183.262Z" fill="white"/>
<path d="M262 157.055H235.818V183.215H262V157.055Z" fill="white"/>
<path d="M235.818 628.312H209.59V654.473H235.818V628.312Z" fill="white"/>
<path d="M235.818 602.106H209.59V628.313H235.818V602.106Z" fill="white"/>
<path d="M235.818 575.945H209.59V602.105H235.818V575.945Z" fill="white"/>
<path d="M235.818 549.738H209.59V575.898H235.818V549.738Z" fill="white"/>
<path d="M235.818 523.578H209.59V549.739H235.818V523.578Z" fill="white"/>
<path d="M235.818 497.371H209.59V523.578H235.818V497.371Z" fill="white"/>
<path d="M235.818 471.211H209.59V497.371H235.818V471.211Z" fill="white"/>
<path d="M235.818 445.051H209.59V471.211H235.818V445.051Z" fill="white"/>
<path d="M235.818 418.844H209.59V445.051H235.818V418.844Z" fill="white"/>
<path d="M235.818 392.683H209.59V418.844H235.818V392.683Z" fill="white"/>
<path d="M235.818 366.524H209.59V392.684H235.818V366.524Z" fill="white"/>
<path d="M235.818 340.316H209.59V366.477H235.818V340.316Z" fill="white"/>
<path d="M235.818 314.156H209.59V340.363H235.818V314.156Z" fill="white"/>
<path d="M235.818 287.949H209.59V314.109H235.818V287.949Z" fill="white"/>
<path d="M235.818 261.789H209.59V287.949H235.818V261.789Z" fill="white"/>
<path d="M235.818 235.629H209.59V261.789H235.818V235.629Z" fill="white"/>
<path d="M235.818 209.422H209.59V235.629H235.818V209.422Z" fill="white"/>
<path d="M235.818 183.262H209.59V209.422H235.818V183.262Z" fill="white"/>
<path d="M235.818 157.055H209.59V183.215H235.818V157.055Z" fill="white"/>
<path d="M209.589 628.312H183.408V654.473H209.589V628.312Z" fill="white"/>
<path d="M209.589 602.106H183.408V628.313H209.589V602.106Z" fill="white"/>
<path d="M209.589 575.945H183.408V602.105H209.589V575.945Z" fill="white"/>
<path d="M209.589 549.738H183.408V575.898H209.589V549.738Z" fill="white"/>
<path d="M209.589 523.578H183.408V549.739H209.589V523.578Z" fill="white"/>
<path d="M209.589 497.371H183.408V523.578H209.589V497.371Z" fill="white"/>
<path d="M209.589 471.211H183.408V497.371H209.589V471.211Z" fill="white"/>
<path d="M209.589 445.051H183.408V471.211H209.589V445.051Z" fill="white"/>
<path d="M209.589 418.844H183.408V445.051H209.589V418.844Z" fill="white"/>
<path d="M209.589 392.683H183.408V418.844H209.589V392.683Z" fill="white"/>
<path d="M209.589 366.524H183.408V392.684H209.589V366.524Z" fill="white"/>
<path d="M209.589 340.316H183.408V366.477H209.589V340.316Z" fill="white"/>
<path d="M209.589 314.156H183.408V340.363H209.589V314.156Z" fill="white"/>
<path d="M209.589 287.949H183.408V314.109H209.589V287.949Z" fill="white"/>
<path d="M209.589 261.789H183.408V287.949H209.589V261.789Z" fill="white"/>
<path d="M209.589 235.629H183.408V261.789H209.589V235.629Z" fill="white"/>
<path d="M209.589 209.422H183.408V235.629H209.589V209.422Z" fill="white"/>
<path d="M209.589 183.262H183.408V209.422H209.589V183.262Z" fill="white"/>
<path d="M183.363 628.312H157.182V654.473H183.363V628.312Z" fill="white"/>
<path d="M183.363 602.106H157.182V628.313H183.363V602.106Z" fill="white"/>
<path d="M183.363 575.945H157.182V602.105H183.363V575.945Z" fill="white"/>
<path d="M183.363 549.738H157.182V575.898H183.363V549.738Z" fill="white"/>
<path d="M183.363 523.578H157.182V549.739H183.363V523.578Z" fill="white"/>
<path d="M183.363 497.371H157.182V523.578H183.363V497.371Z" fill="white"/>
<path d="M183.363 471.211H157.182V497.371H183.363V471.211Z" fill="white"/>
<path d="M183.363 445.051H157.182V471.211H183.363V445.051Z" fill="white"/>
<path d="M183.363 418.844H157.182V445.051H183.363V418.844Z" fill="white"/>
<path d="M183.363 392.683H157.182V418.844H183.363V392.683Z" fill="white"/>
<path d="M183.363 366.524H157.182V392.684H183.363V366.524Z" fill="white"/>
<path d="M183.363 340.316H157.182V366.477H183.363V340.316Z" fill="white"/>
<path d="M183.363 314.156H157.182V340.363H183.363V314.156Z" fill="white"/>
<path d="M183.363 287.949H157.182V314.109H183.363V287.949Z" fill="white"/>
<path d="M183.363 261.789H157.182V287.949H183.363V261.789Z" fill="white"/>
<path d="M183.363 235.629H157.182V261.789H183.363V235.629Z" fill="white"/>
<path d="M157.181 628.312H131V654.473H157.181V628.312Z" fill="white"/>
<path d="M157.181 602.106H131V628.313H157.181V602.106Z" fill="white"/>
<path d="M157.181 575.945H131V602.105H157.181V575.945Z" fill="white"/>
<path d="M157.181 549.738H131V575.898H157.181V549.738Z" fill="white"/>
<path d="M157.181 523.578H131V549.739H157.181V523.578Z" fill="white"/>
<path d="M157.181 497.371H131V523.578H157.181V497.371Z" fill="white"/>
<path d="M157.181 471.211H131V497.371H157.181V471.211Z" fill="white"/>
<path d="M157.181 445.051H131V471.211H157.181V445.051Z" fill="white"/>
<path d="M157.181 418.844H131V445.051H157.181V418.844Z" fill="white"/>
<path d="M157.181 392.683H131V418.844H157.181V392.683Z" fill="white"/>
<path d="M157.181 366.524H131V392.684H157.181V366.524Z" fill="white"/>
<path d="M157.181 340.316H131V366.477H157.181V340.316Z" fill="white"/>
<path d="M157.181 314.156H131V340.363H157.181V314.156Z" fill="white"/>
<path d="M157.181 287.949H131V314.109H157.181V287.949Z" fill="white"/>
<path d="M131.047 628.312H104.818V654.473H131.047V628.312Z" fill="white"/>
<path d="M131.047 602.106H104.818V628.313H131.047V602.106Z" fill="white"/>
<path d="M131.047 575.945H104.818V602.105H131.047V575.945Z" fill="white"/>
<path d="M131.047 549.738H104.818V575.898H131.047V549.738Z" fill="white"/>
<path d="M131.047 523.578H104.818V549.739H131.047V523.578Z" fill="white"/>
<path d="M131.047 497.371H104.818V523.578H131.047V497.371Z" fill="white"/>
<path d="M131.047 471.211H104.818V497.371H131.047V471.211Z" fill="white"/>
<path d="M131.047 445.051H104.818V471.211H131.047V445.051Z" fill="white"/>
<path d="M131.047 418.844H104.818V445.051H131.047V418.844Z" fill="white"/>
<path d="M131.047 392.683H104.818V418.844H131.047V392.683Z" fill="white"/>
<path d="M131.047 366.524H104.818V392.684H131.047V366.524Z" fill="white"/>
<path d="M131.047 340.316H104.818V366.477H131.047V340.316Z" fill="white"/>
<path d="M104.771 628.312H78.5898V654.473H104.771V628.312Z" fill="white"/>
<path d="M104.771 602.106H78.5898V628.313H104.771V602.106Z" fill="white"/>
<path d="M104.771 575.945H78.5898V602.105H104.771V575.945Z" fill="white"/>
<path d="M104.771 549.738H78.5898V575.898H104.771V549.738Z" fill="white"/>
<path d="M104.771 523.578H78.5898V549.739H104.771V523.578Z" fill="white"/>
<path d="M104.771 497.371H78.5898V523.578H104.771V497.371Z" fill="white"/>
<path d="M104.771 471.211H78.5898V497.371H104.771V471.211Z" fill="white"/>
<path d="M104.771 445.051H78.5898V471.211H104.771V445.051Z" fill="white"/>
<path d="M104.771 418.844H78.5898V445.051H104.771V418.844Z" fill="white"/>
<path d="M104.771 392.683H78.5898V418.844H104.771V392.683Z" fill="white"/>
<path d="M78.5914 628.312H52.4102V654.473H78.5914V628.312Z" fill="white"/>
<path d="M78.5914 602.106H52.4102V628.313H78.5914V602.106Z" fill="white"/>
<path d="M78.5914 575.945H52.4102V602.105H78.5914V575.945Z" fill="white"/>
<path d="M78.5914 549.738H52.4102V575.898H78.5914V549.738Z" fill="white"/>
<path d="M78.5914 523.578H52.4102V549.739H78.5914V523.578Z" fill="white"/>
<path d="M78.5914 497.371H52.4102V523.578H78.5914V497.371Z" fill="white"/>
<path d="M78.5914 471.211H52.4102V497.371H78.5914V471.211Z" fill="white"/>
<path d="M78.5914 445.051H52.4102V471.211H78.5914V445.051Z" fill="white"/>
<path d="M78.5914 418.844H52.4102V445.051H78.5914V418.844Z" fill="white"/>
<path d="M78.5914 392.683H52.4102V418.844H78.5914V392.683Z" fill="white"/>
<path d="M52.4098 602.106H26.1816V628.313H52.4098V602.106Z" fill="white"/>
<path d="M52.4098 575.945H26.1816V602.105H52.4098V575.945Z" fill="white"/>
<path d="M52.4098 549.738H26.1816V575.898H52.4098V549.738Z" fill="white"/>
<path d="M52.4098 523.578H26.1816V549.739H52.4098V523.578Z" fill="white"/>
<path d="M52.4098 497.371H26.1816V523.578H52.4098V497.371Z" fill="white"/>
<path d="M52.4098 471.211H26.1816V497.371H52.4098V471.211Z" fill="white"/>
<path d="M52.4098 445.051H26.1816V471.211H52.4098V445.051Z" fill="white"/>
<path d="M52.4098 418.844H26.1816V445.051H52.4098V418.844Z" fill="white"/>
<path d="M26.1812 575.945H0V602.105H26.1812V575.945Z" fill="white"/>
<path d="M26.1812 549.738H0V575.898H26.1812V549.738Z" fill="white"/>
<path d="M26.1812 523.578H0V549.739H26.1812V523.578Z" fill="white"/>
<path d="M26.1812 497.371H0V523.578H26.1812V497.371Z" fill="white"/>
<path d="M26.1812 471.211H0V497.371H26.1812V471.211Z" fill="white"/>
<path d="M26.1812 445.051H0V471.211H26.1812V445.051Z" fill="white"/>
<path d="M340.636 706.84H314.408V733.047H340.636V706.84Z" fill="white"/>
<path d="M340.636 680.633H314.408V706.793H340.636V680.633Z" fill="white"/>
<path d="M314.361 706.84H288.18V733.047H314.361V706.84Z" fill="white"/>
<path d="M314.361 680.633H288.18V706.793H314.361V680.633Z" fill="white"/>
<path d="M209.589 471.211H183.408V497.371H209.589V471.211Z" fill="#3F2A5E"/>
<path d="M209.589 445.051H183.408V471.211H209.589V445.051Z" fill="#3F2A5E"/>
<path d="M104.771 471.211H78.5898V497.371H104.771V471.211Z" fill="#3F2A5E"/>
<path d="M104.771 445.051H78.5898V471.211H104.771V445.051Z" fill="#3F2A5E"/>
<path d="M576.361 287.949H550.18V314.11H576.361V287.949Z" fill="#353535"/>
<path d="M550.228 287.949H524V314.11H550.228V287.949Z" fill="#353535"/>
<path d="M550.228 261.789H524V287.949H550.228V261.789Z" fill="#353535"/>
<path d="M576.361 261.789H550.18V287.949H576.361V261.789Z" fill="#353535"/>
<path d="M550.228 235.629H524V261.789H550.228V235.629Z" fill="#353535"/>
<path d="M497.771 235.629H471.59V261.789H497.771V235.629Z" fill="#353535"/>
<path d="M497.771 261.789H471.59V287.949H497.771V261.789Z" fill="#353535"/>
<path d="M523.953 235.629H497.771V261.789H523.953V235.629Z" fill="#353535"/>
<path d="M523.953 261.789H497.771V287.949H523.953V261.789Z" fill="#353535"/>
<path d="M445.408 340.316H419.18V366.477H445.408V340.316Z" fill="#353535"/>
<path d="M419.181 340.316H393V366.477H419.181V340.316Z" fill="#353535"/>
<path d="M393 340.316H366.818V366.477H393V340.316Z" fill="#353535"/>
<path d="M366.771 340.316H340.59V366.477H366.771V340.316Z" fill="#353535"/>
<path d="M471.59 314.156H445.408V340.363H471.59V314.156Z" fill="#353535"/>
<path d="M471.59 261.789H445.408V287.949H471.59V261.789Z" fill="#353535"/>
<path d="M471.59 235.629H445.408V261.789H471.59V235.629Z" fill="#353535"/>
<path d="M471.59 287.949H445.408V314.11H471.59V287.949Z" fill="#353535"/>
<path d="M445.408 314.156H419.18V340.363H445.408V314.156Z" fill="#353535"/>
<path d="M445.408 287.949H419.18V314.11H445.408V287.949Z" fill="#353535"/>
<path d="M445.408 261.789H419.18V287.949H445.408V261.789Z" fill="#353535"/>
<path d="M445.408 235.629H419.18V261.789H445.408V235.629Z" fill="#353535"/>
<path d="M419.181 314.156H393V340.363H419.181V314.156Z" fill="#353535"/>
<path d="M419.181 287.949H393V314.11H419.181V287.949Z" fill="#353535"/>
<path d="M419.181 235.629H393V261.789H419.181V235.629Z" fill="#353535"/>
<path d="M419.181 261.789H393V287.949H419.181V261.789Z" fill="#353535"/>
<path d="M393 235.629H366.818V261.789H393V235.629Z" fill="#353535"/>
<path d="M393 287.949H366.818V314.11H393V287.949Z" fill="#353535"/>
<path d="M393 314.156H366.818V340.363H393V314.156Z" fill="#353535"/>
<path d="M393 261.789H366.818V287.949H393V261.789Z" fill="#353535"/>
<path d="M366.771 314.156H340.59V340.363H366.771V314.156Z" fill="#353535"/>
<path d="M366.771 235.629H340.59V261.789H366.771V235.629Z" fill="#353535"/>
<path d="M366.771 287.949H340.59V314.11H366.771V287.949Z" fill="#353535"/>
<path d="M366.771 261.789H340.59V287.949H366.771V261.789Z" fill="#353535"/>
<path d="M340.636 314.156H314.408V340.363H340.636V314.156Z" fill="#353535"/>
<path d="M340.636 235.629H314.408V261.789H340.636V235.629Z" fill="#353535"/>
<path d="M340.636 287.949H314.408V314.11H340.636V287.949Z" fill="#353535"/>
<path d="M340.636 261.789H314.408V287.949H340.636V261.789Z" fill="#353535"/>
<path d="M340.636 340.316H314.408V366.477H340.636V340.316Z" fill="#353535"/>
<path d="M314.361 314.156H288.18V340.363H314.361V314.156Z" fill="#353535"/>
<path d="M314.361 287.949H288.18V314.11H314.361V287.949Z" fill="#353535"/>
<path d="M288.181 261.789H262V287.949H288.181V261.789Z" fill="#353535"/>
<path d="M288.181 235.629H262V261.789H288.181V235.629Z" fill="#353535"/>
<path d="M262 235.629H235.818V261.789H262V235.629Z" fill="#353535"/>
<path d="M314.361 261.789H288.18V287.949H314.361V261.789Z" fill="#353535"/>
<path d="M314.361 235.629H288.18V261.789H314.361V235.629Z" fill="#353535"/>
<path d="M262 261.789H235.818V287.949H262V261.789Z" fill="#353535"/>
<path d="M262 314.156H235.818V340.363H262V314.156Z" fill="#353535"/>
<path d="M262 287.949H235.818V314.11H262V287.949Z" fill="#353535"/>
<path d="M235.818 340.316H209.59V366.477H235.818V340.316Z" fill="#353535"/>
<path d="M209.589 340.316H183.408V366.477H209.589V340.316Z" fill="#353535"/>
<path d="M183.361 340.316H157.18V366.477H183.361V340.316Z" fill="#353535"/>
<path d="M157.181 340.316H131V366.477H157.181V340.316Z" fill="#353535"/>
<path d="M131.047 340.316H104.818V366.477H131.047V340.316Z" fill="#353535"/>
<path d="M235.818 287.949H209.59V314.11H235.818V287.949Z" fill="#353535"/>
<path d="M235.818 261.789H209.59V287.949H235.818V261.789Z" fill="#353535"/>
<path d="M235.818 235.629H209.59V261.789H235.818V235.629Z" fill="#353535"/>
<path d="M209.589 235.629H183.408V261.789H209.589V235.629Z" fill="#353535"/>
<path d="M209.589 261.789H183.408V287.949H209.589V261.789Z" fill="#353535"/>
<path d="M209.589 287.949H183.408V314.11H209.589V287.949Z" fill="#353535"/>
<path d="M183.361 261.789H157.18V287.949H183.361V261.789Z" fill="#353535"/>
<path d="M183.361 235.629H157.18V261.789H183.361V235.629Z" fill="#353535"/>
<path d="M183.361 287.949H157.18V314.11H183.361V287.949Z" fill="#353535"/>
<path d="M157.181 287.949H131V314.11H157.181V287.949Z" fill="#353535"/>
<path d="M157.181 261.789H131V287.949H157.181V261.789Z" fill="#353535"/>
<path d="M157.181 235.629H131V261.789H157.181V235.629Z" fill="#353535"/>
<path d="M131.047 261.789H104.818V287.949H131.047V261.789Z" fill="#353535"/>
<path d="M131.047 287.949H104.818V314.11H131.047V287.949Z" fill="#353535"/>
<path d="M235.818 314.156H209.59V340.363H235.818V314.156Z" fill="#353535"/>
<path d="M209.589 314.156H183.408V340.363H209.589V314.156Z" fill="#353535"/>
<path d="M183.361 314.156H157.18V340.363H183.361V314.156Z" fill="#353535"/>
<path d="M157.181 314.156H131V340.363H157.181V314.156Z" fill="#353535"/>
<path d="M131.047 314.156H104.818V340.363H131.047V314.156Z" fill="#353535"/>
<path d="M104.771 314.156H78.5898V340.363H104.771V314.156Z" fill="#353535"/>
<path d="M104.771 287.949H78.5898V314.11H104.771V287.949Z" fill="#353535"/>
<path d="M104.771 261.789H78.5898V287.949H104.771V261.789Z" fill="#353535"/>
<path d="M104.771 235.629H78.5898V261.789H104.771V235.629Z" fill="#353535"/>
<path d="M131.047 235.629H104.818V261.789H131.047V235.629Z" fill="#353535"/>
<path d="M471.591 209.422H445.41V235.629H471.591V209.422Z" fill="#E4DFE8"/>
<path d="M471.591 183.262H445.41V209.422H471.591V183.262Z" fill="#E4DFE8"/>
<path d="M52.4098 602.106H26.1816V628.313H52.4098V602.106Z" fill="#E4DFE8"/>
<path d="M235.82 628.312H209.592V654.473H235.82V628.312Z" fill="#E4DFE8"/>
<path d="M209.591 628.312H183.41V654.473H209.591V628.312Z" fill="#E4DFE8"/>
<path d="M262 628.312H235.818V654.473H262V628.312Z" fill="#E4DFE8"/>
<path d="M157.181 628.312H131V654.473H157.181V628.312Z" fill="#E4DFE8"/>
<path d="M131.048 628.312H104.82V654.473H131.048V628.312Z" fill="#E4DFE8"/>
<path d="M104.773 628.312H78.5918V654.473H104.773V628.312Z" fill="#E4DFE8"/>
<path d="M78.5914 628.312H52.4102V654.473H78.5914V628.312Z" fill="#E4DFE8"/>
<path d="M183.363 628.312H157.182V654.473H183.363V628.312Z" fill="#E4DFE8"/>
<path d="M419.181 549.738H393V575.898H419.181V549.738Z" fill="#E4DFE8"/>
<path d="M419.181 575.945H393V602.105H419.181V575.945Z" fill="#E4DFE8"/>
<path d="M393 602.106H366.818V628.313H393V602.106Z" fill="#E4DFE8"/>
<path d="M340.638 628.312H314.41V654.473H340.638V628.312Z" fill="#E4DFE8"/>
<path d="M366.773 628.312H340.592V654.473H366.773V628.312Z" fill="#E4DFE8"/>
<path d="M314.363 628.312H288.182V654.473H314.363V628.312Z" fill="#E4DFE8"/>
<path d="M288.181 628.312H262V654.473H288.181V628.312Z" fill="#E4DFE8"/>
<path d="M445.41 523.578H419.182V549.739H445.41V523.578Z" fill="#E4DFE8"/>
<path d="M471.591 471.211H445.41V497.371H471.591V471.211Z" fill="#E4DFE8"/>
<path d="M471.591 445.051H445.41V471.211H471.591V445.051Z" fill="#E4DFE8"/>
<path d="M471.591 497.371H445.41V523.578H471.591V497.371Z" fill="#E4DFE8"/>
<path d="M497.773 418.844H471.592V445.051H497.773V418.844Z" fill="#E4DFE8"/>
<path d="M523.955 366.524H497.773V392.684H523.955V366.524Z" fill="#E4DFE8"/>
<path d="M523.955 340.316H497.773V366.477H523.955V340.316Z" fill="#E4DFE8"/>
<path d="M523.955 392.683H497.773V418.844H523.955V392.683Z" fill="#E4DFE8"/>
<path d="M523.955 287.949H497.773V314.109H523.955V287.949Z" fill="#E4DFE8"/>
<path d="M523.955 314.156H497.773V340.363H523.955V314.156Z" fill="#E4DFE8"/>
<path d="M497.773 209.422H471.592V235.629H497.773V209.422Z" fill="#E4DFE8"/>
<path d="M497.773 183.262H471.592V209.422H497.773V183.262Z" fill="#E4DFE8"/>
<path d="M314.363 130.895H288.182V157.055H314.363V130.895Z" fill="#E4DFE8"/>
<path d="M340.638 130.895H314.41V157.055H340.638V130.895Z" fill="#E4DFE8"/>
<path d="M445.41 130.895H419.182V157.055H445.41V130.895Z" fill="#E4DFE8"/>
<path d="M419.181 130.895H393V157.055H419.181V130.895Z" fill="#E4DFE8"/>
<path d="M393 130.895H366.818V157.055H393V130.895Z" fill="#E4DFE8"/>
<path d="M366.773 130.895H340.592V157.055H366.773V130.895Z" fill="#E4DFE8"/>
<path d="M576.363 418.844H550.182V445.051H576.363V418.844Z" fill="#E4DFE8"/>
<path d="M602.591 445.051H576.41V471.211H602.591V445.051Z" fill="#E4DFE8"/>
<path d="M628.772 471.211H602.591V497.371H628.772V471.211Z" fill="#E4DFE8"/>
<path d="M628.772 497.371H602.591V523.578H628.772V497.371Z" fill="#E4DFE8"/>
<path d="M655.001 523.578H628.772V549.739H655.001V523.578Z" fill="#E4DFE8"/>
<path d="M655.001 549.738H628.772V575.898H655.001V549.738Z" fill="#E4DFE8"/>
<path d="M655.001 575.945H628.772V602.105H655.001V575.945Z" fill="#E4DFE8"/>
<path d="M681.181 602.106H655V628.313H681.181V602.106Z" fill="#E4DFE8"/>
<path d="M681.181 628.312H655V654.473H681.181V628.312Z" fill="#E4DFE8"/>
<path d="M681.181 654.473H655V680.633H681.181V654.473Z" fill="#E4DFE8"/>
<path d="M655.001 680.633H628.772V706.793H655.001V680.633Z" fill="#E4DFE8"/>
<path d="M681.181 680.633H655V706.793H681.181V680.633Z" fill="#E4DFE8"/>
<path d="M707.363 602.106H681.182V628.313H707.363V602.106Z" fill="#E4DFE8"/>
<path d="M707.363 654.473H681.182V680.633H707.363V654.473Z" fill="#E4DFE8"/>
<path d="M707.363 628.312H681.182V654.473H707.363V628.312Z" fill="#E4DFE8"/>
<path d="M681.181 575.945H655V602.105H681.181V575.945Z" fill="#E4DFE8"/>
<path d="M681.181 549.738H655V575.898H681.181V549.738Z" fill="#E4DFE8"/>
<path d="M681.181 523.578H655V549.739H681.181V523.578Z" fill="#E4DFE8"/>
<path d="M655.001 471.211H628.772V497.371H655.001V471.211Z" fill="#E4DFE8"/>
<path d="M655.001 497.371H628.772V523.578H655.001V497.371Z" fill="#E4DFE8"/>
<path d="M628.772 418.844H602.591V445.051H628.772V418.844Z" fill="#E4DFE8"/>
<path d="M628.772 445.051H602.591V471.211H628.772V445.051Z" fill="#E4DFE8"/>
<path d="M602.591 418.844H576.41V445.051H602.591V418.844Z" fill="#E4DFE8"/>
<path d="M576.363 392.683H550.182V418.844H576.363V392.683Z" fill="#E4DFE8"/>
<path d="M576.363 366.524H550.182V392.684H576.363V366.524Z" fill="#E4DFE8"/>
<path d="M235.818 104.734H209.59V130.941H235.818V104.734Z" fill="#531484"/>
<path d="M209.589 157.055H183.408V183.215H209.589V157.055Z" fill="#531484"/>
<path d="M235.818 130.895H209.59V157.055H235.818V130.895Z" fill="#531484"/>
<path d="M733.589 366.523H707.408V392.684H733.589V366.523Z" fill="#531484"/>
<path d="M707.361 366.523H681.18V392.684H707.361V366.523Z" fill="#531484"/>
<path d="M681.18 340.316H654.999V366.477H681.18V340.316Z" fill="#531484"/>
<path d="M785.952 392.684H759.771V418.844H785.952V392.684Z" fill="#531484"/>
<path d="M759.818 392.684H733.59V418.844H759.818V392.684Z" fill="#531484"/>
<path d="M785.952 366.523H759.771V392.684H785.952V366.523Z" fill="#531484"/>
<path d="M681.18 366.523H654.999V392.684H681.18V366.523Z" fill="#531484"/>
<path d="M707.361 471.211H681.18V497.371H707.361V471.211Z" fill="#531484"/>
<path d="M707.361 445.051H681.18V471.211H707.361V445.051Z" fill="#531484"/>
<path d="M759.818 418.844H733.59V445.051H759.818V418.844Z" fill="#531484"/>
<path d="M733.589 418.844H707.408V445.051H733.589V418.844Z" fill="#531484"/>
<path d="M707.361 418.844H681.18V445.051H707.361V418.844Z" fill="#531484"/>
<path d="M681.18 392.684H654.999V418.844H681.18V392.684Z" fill="#531484"/>
<path d="M681.18 418.844H654.999V445.051H681.18V418.844Z" fill="#531484"/>
<path d="M707.361 523.578H681.18V549.738H707.361V523.578Z" fill="#531484"/>
<path d="M681.18 445.051H654.999V471.211H681.18V445.051Z" fill="#531484"/>
<path d="M681.18 497.371H654.999V523.578H681.18V497.371Z" fill="#531484"/>
<path d="M654.999 418.844H628.771V445.051H654.999V418.844Z" fill="#531484"/>
<path d="M681.18 471.211H654.999V497.371H681.18V471.211Z" fill="#531484"/>
<path d="M654.999 471.211H628.771V497.371H654.999V471.211Z" fill="#531484"/>
<path d="M654.999 445.051H628.771V471.211H654.999V445.051Z" fill="#531484"/>
<path d="M628.771 418.844H602.59V445.051H628.771V418.844Z" fill="#531484"/>
<path d="M550.226 366.523H523.998V392.684H550.226V366.523Z" fill="#531484"/>
<path d="M550.226 392.684H523.998V418.844H550.226V392.684Z" fill="#531484"/>
<path d="M628.771 445.051H602.59V471.211H628.771V445.051Z" fill="#531484"/>
<path d="M628.771 471.211H602.59V497.371H628.771V471.211Z" fill="#531484"/>
<path d="M576.361 392.684H550.18V418.844H576.361V392.684Z" fill="#531484"/>
<path d="M576.361 445.051H550.18V471.211H576.361V445.051Z" fill="#531484"/>
<path d="M576.361 418.844H550.18V445.051H576.361V418.844Z" fill="#531484"/>
<path d="M576.361 366.523H550.18V392.684H576.361V366.523Z" fill="#531484"/>
<path d="M550.226 445.051H523.998V471.211H550.226V445.051Z" fill="#531484"/>
<path d="M523.953 497.371H497.771V523.578H523.953V497.371Z" fill="#531484"/>
<path d="M602.59 445.051H576.408V471.211H602.59V445.051Z" fill="#531484"/>
<path d="M602.59 471.211H576.408V497.371H602.59V471.211Z" fill="#531484"/>
<path d="M602.59 418.844H576.408V445.051H602.59V418.844Z" fill="#531484"/>
<path d="M602.59 392.684H576.408V418.844H602.59V392.684Z" fill="#531484"/>
<path d="M576.361 497.371H550.18V523.578H576.361V497.371Z" fill="#531484"/>
<path d="M576.361 471.211H550.18V497.371H576.361V471.211Z" fill="#531484"/>
<path d="M550.226 497.371H523.998V523.578H550.226V497.371Z" fill="#531484"/>
<path d="M628.771 392.684H602.59V418.844H628.771V392.684Z" fill="#531484"/>
<path d="M759.818 235.629H733.59V261.789H759.818V235.629Z" fill="#531484"/>
<path d="M733.589 261.789H707.408V287.949H733.589V261.789Z" fill="#531484"/>
<path d="M707.361 287.949H681.18V314.109H707.361V287.949Z" fill="#531484"/>
<path d="M707.361 261.789H681.18V287.949H707.361V261.789Z" fill="#531484"/>
<path d="M707.361 235.629H681.18V261.789H707.361V235.629Z" fill="#531484"/>
<path d="M681.18 314.156H654.999V340.363H681.18V314.156Z" fill="#531484"/>
<path d="M681.18 287.949H654.999V314.109H681.18V287.949Z" fill="#531484"/>
<path d="M681.18 261.789H654.999V287.949H681.18V261.789Z" fill="#531484"/>
<path d="M681.18 235.629H654.999V261.789H681.18V235.629Z" fill="#531484"/>
<path d="M681.18 183.261H654.999V209.422H681.18V183.261Z" fill="#531484"/>
<path d="M681.18 157.055H654.999V183.215H681.18V157.055Z" fill="#531484"/>
<path d="M654.999 392.684H628.771V418.844H654.999V392.684Z" fill="#531484"/>
<path d="M654.999 366.523H628.771V392.684H654.999V366.523Z" fill="#531484"/>
<path d="M654.999 340.316H628.771V366.477H654.999V340.316Z" fill="#531484"/>
<path d="M654.999 314.156H628.771V340.363H654.999V314.156Z" fill="#531484"/>
<path d="M654.999 287.949H628.771V314.109H654.999V287.949Z" fill="#531484"/>
<path d="M654.999 261.789H628.771V287.949H654.999V261.789Z" fill="#531484"/>
<path d="M654.999 235.629H628.771V261.789H654.999V235.629Z" fill="#531484"/>
<path d="M654.999 183.261H628.771V209.422H654.999V183.261Z" fill="#531484"/>
<path d="M628.771 366.523H602.59V392.684H628.771V366.523Z" fill="#531484"/>
<path d="M628.771 340.316H602.59V366.477H628.771V340.316Z" fill="#531484"/>
<path d="M628.771 314.156H602.59V340.363H628.771V314.156Z" fill="#531484"/>
<path d="M628.771 287.949H602.59V314.109H628.771V287.949Z" fill="#531484"/>
<path d="M628.771 261.789H602.59V287.949H628.771V261.789Z" fill="#531484"/>
<path d="M628.771 235.629H602.59V261.789H628.771V235.629Z" fill="#531484"/>
<path d="M628.771 183.261H602.59V209.422H628.771V183.261Z" fill="#531484"/>
<path d="M602.59 366.523H576.408V392.684H602.59V366.523Z" fill="#531484"/>
<path d="M602.59 340.316H576.408V366.477H602.59V340.316Z" fill="#531484"/>
<path d="M602.59 314.156H576.408V340.363H602.59V314.156Z" fill="#531484"/>
<path d="M602.59 287.949H576.408V314.109H602.59V287.949Z" fill="#531484"/>
<path d="M602.59 261.789H576.408V287.949H602.59V261.789Z" fill="#531484"/>
<path d="M602.59 235.629H576.408V261.789H602.59V235.629Z" fill="#531484"/>
<path d="M602.59 209.422H576.408V235.629H602.59V209.422Z" fill="#531484"/>
<path d="M576.361 340.316H550.18V366.477H576.361V340.316Z" fill="#531484"/>
<path d="M576.361 314.156H550.18V340.363H576.361V314.156Z" fill="#531484"/>
<path d="M576.361 235.629H550.18V261.789H576.361V235.629Z" fill="#531484"/>
<path d="M576.361 209.422H550.18V235.629H576.361V209.422Z" fill="#531484"/>
<path d="M576.361 183.261H550.18V209.422H576.361V183.261Z" fill="#531484"/>
<path d="M576.361 157.055H550.18V183.215H576.361V157.055Z" fill="#531484"/>
<path d="M550.226 314.156H523.998V340.363H550.226V314.156Z" fill="#531484"/>
<path d="M550.226 209.422H523.998V235.629H550.226V209.422Z" fill="#531484"/>
<path d="M550.226 183.261H523.998V209.422H550.226V183.261Z" fill="#531484"/>
<path d="M550.226 157.055H523.998V183.215H550.226V157.055Z" fill="#531484"/>
<path d="M550.226 130.895H523.998V157.055H550.226V130.895Z" fill="#531484"/>
<path d="M523.953 209.422H497.771V235.629H523.953V209.422Z" fill="#531484"/>
<path d="M523.953 183.261H497.771V209.422H523.953V183.261Z" fill="#531484"/>
<path d="M523.953 157.055H497.771V183.215H523.953V157.055Z" fill="#531484"/>
<path d="M471.589 78.5273H445.408V104.688H471.589V78.5273Z" fill="#531484"/>
<path d="M445.408 104.734H419.18V130.941H445.408V104.734Z" fill="#531484"/>
<path d="M445.408 78.5273H419.18V104.688H445.408V78.5273Z" fill="#531484"/>
<path d="M419.179 104.734H392.998V130.941H419.179V104.734Z" fill="#531484"/>
<path d="M419.179 78.5273H392.998V104.688H419.179V78.5273Z" fill="#531484"/>
<path d="M392.998 130.895H366.816V157.055H392.998V130.895Z" fill="#531484"/>
<path d="M392.998 104.734H366.816V130.941H392.998V104.734Z" fill="#531484"/>
<path d="M392.998 78.5273H366.816V104.688H392.998V78.5273Z" fill="#531484"/>
<path d="M366.771 209.422H340.59V235.629H366.771V209.422Z" fill="#531484"/>
<path d="M366.771 130.895H340.59V157.055H366.771V130.895Z" fill="#531484"/>
<path d="M366.771 104.734H340.59V130.941H366.771V104.734Z" fill="#531484"/>
<path d="M366.771 78.5273H340.59V104.688H366.771V78.5273Z" fill="#531484"/>
<path d="M340.636 209.422H314.408V235.629H340.636V209.422Z" fill="#531484"/>
<path d="M340.636 183.261H314.408V209.422H340.636V183.261Z" fill="#531484"/>
<path d="M340.636 130.895H314.408V157.055H340.636V130.895Z" fill="#531484"/>
<path d="M340.636 104.734H314.408V130.941H340.636V104.734Z" fill="#531484"/>
<path d="M314.361 209.422H288.18V235.629H314.361V209.422Z" fill="#531484"/>
<path d="M314.361 183.261H288.18V209.422H314.361V183.261Z" fill="#531484"/>
<path d="M314.361 157.055H288.18V183.215H314.361V157.055Z" fill="#531484"/>
<path d="M314.361 130.895H288.18V157.055H314.361V130.895Z" fill="#531484"/>
<path d="M314.361 104.734H288.18V130.941H314.361V104.734Z" fill="#531484"/>
<path d="M288.179 183.261H261.998V209.422H288.179V183.261Z" fill="#531484"/>
<path d="M288.179 157.055H261.998V183.215H288.179V157.055Z" fill="#531484"/>
<path d="M288.179 130.895H261.998V157.055H288.179V130.895Z" fill="#531484"/>
<path d="M262 183.261H235.818V209.422H262V183.261Z" fill="#531484"/>
<path d="M262 157.055H235.818V183.215H262V157.055Z" fill="#531484"/>
<path d="M262 130.895H235.818V157.055H262V130.895Z" fill="#531484"/>
<path d="M576.361 261.789H550.18V287.949H576.361V261.789Z" fill="#232323"/>
<path d="M576.361 287.949H550.18V314.109H576.361V287.949Z" fill="#232323"/>
<path d="M550.228 287.949H524V314.109H550.228V287.949Z" fill="#232323"/>
<path d="M550.228 261.789H524V287.949H550.228V261.789Z" fill="#232323"/>
<path d="M550.228 235.629H524V261.789H550.228V235.629Z" fill="#232323"/>
<path d="M523.953 261.789H497.771V287.949H523.953V261.789Z" fill="#232323"/>
<path d="M523.953 235.629H497.771V261.789H523.953V235.629Z" fill="#232323"/>
<path d="M497.771 261.789H471.59V287.949H497.771V261.789Z" fill="#232323"/>
<path d="M497.771 235.629H471.59V261.789H497.771V235.629Z" fill="#232323"/>
<path d="M471.59 235.629H445.408V261.789H471.59V235.629Z" fill="#232323"/>
<path d="M471.59 261.789H445.408V287.949H471.59V261.789Z" fill="#232323"/>
<path d="M471.59 287.949H445.408V314.109H471.59V287.949Z" fill="#232323"/>
<path d="M471.59 314.156H445.408V340.363H471.59V314.156Z" fill="#232323"/>
<path d="M445.408 340.316H419.18V366.477H445.408V340.316Z" fill="#232323"/>
<path d="M759.818 392.684H733.59V418.844H759.818V392.684Z" fill="#812DA5"/>
<path d="M759.818 235.629H733.59V261.789H759.818V235.629Z" fill="#812DA5"/>
<path d="M733.589 418.844H707.408V445.051H733.589V418.844Z" fill="#812DA5"/>
<path d="M733.589 261.789H707.408V287.949H733.589V261.789Z" fill="#812DA5"/>
<path d="M707.362 445.051H681.181V471.211H707.362V445.051Z" fill="#812DA5"/>
<path d="M707.362 287.949H681.181V314.109H707.362V287.949Z" fill="#812DA5"/>
<path d="M707.362 235.629H681.181V261.789H707.362V235.629Z" fill="#812DA5"/>
<path d="M681.18 471.211H654.999V497.371H681.18V471.211Z" fill="#812DA5"/>
<path d="M681.18 445.051H654.999V471.211H681.18V445.051Z" fill="#812DA5"/>
<path d="M681.18 392.684H654.999V418.844H681.18V392.684Z" fill="#812DA5"/>
<path d="M681.18 366.523H654.999V392.684H681.18V366.523Z" fill="#812DA5"/>
<path d="M681.18 340.316H654.999V366.477H681.18V340.316Z" fill="#812DA5"/>
<path d="M681.18 314.156H654.999V340.363H681.18V314.156Z" fill="#812DA5"/>
<path d="M681.18 261.789H654.999V287.949H681.18V261.789Z" fill="#812DA5"/>
<path d="M681.18 235.629H654.999V261.789H681.18V235.629Z" fill="#812DA5"/>
<path d="M681.18 157.055H654.999V183.215H681.18V157.055Z" fill="#812DA5"/>
<path d="M655 471.211H628.771V497.371H655V471.211Z" fill="#812DA5"/>
<path d="M655 445.051H628.771V471.211H655V445.051Z" fill="#812DA5"/>
<path d="M655 418.844H628.771V445.051H655V418.844Z" fill="#812DA5"/>
<path d="M655 366.523H628.771V392.684H655V366.523Z" fill="#812DA5"/>
<path d="M655 314.156H628.771V340.363H655V314.156Z" fill="#812DA5"/>
<path d="M655 261.789H628.771V287.949H655V261.789Z" fill="#812DA5"/>
<path d="M655 235.629H628.771V261.789H655V235.629Z" fill="#812DA5"/>
<path d="M655 183.261H628.771V209.422H655V183.261Z" fill="#812DA5"/>
<path d="M628.771 471.211H602.59V497.371H628.771V471.211Z" fill="#812DA5"/>
<path d="M628.771 418.844H602.59V445.051H628.771V418.844Z" fill="#812DA5"/>
<path d="M628.771 366.523H602.59V392.684H628.771V366.523Z" fill="#812DA5"/>
<path d="M628.771 340.316H602.59V366.477H628.771V340.316Z" fill="#812DA5"/>
<path d="M628.771 314.156H602.59V340.363H628.771V314.156Z" fill="#812DA5"/>
<path d="M628.771 235.629H602.59V261.789H628.771V235.629Z" fill="#812DA5"/>
<path d="M628.771 183.261H602.59V209.422H628.771V183.261Z" fill="#812DA5"/>
<path d="M602.589 471.211H576.408V497.371H602.589V471.211Z" fill="#812DA5"/>
<path d="M602.589 418.844H576.408V445.051H602.589V418.844Z" fill="#812DA5"/>
<path d="M602.589 392.684H576.408V418.844H602.589V392.684Z" fill="#812DA5"/>
<path d="M602.589 340.316H576.408V366.477H602.589V340.316Z" fill="#812DA5"/>
<path d="M602.589 287.949H576.408V314.109H602.589V287.949Z" fill="#812DA5"/>
<path d="M602.589 261.789H576.408V287.949H602.589V261.789Z" fill="#812DA5"/>
<path d="M602.589 235.629H576.408V261.789H602.589V235.629Z" fill="#812DA5"/>
<path d="M602.589 209.422H576.408V235.629H602.589V209.422Z" fill="#812DA5"/>
<path d="M576.361 471.211H550.18V497.371H576.361V471.211Z" fill="#812DA5"/>
<path d="M576.361 445.051H550.18V471.211H576.361V445.051Z" fill="#812DA5"/>
<path d="M576.361 392.684H550.18V418.844H576.361V392.684Z" fill="#812DA5"/>
<path d="M576.361 366.523H550.18V392.684H576.361V366.523Z" fill="#812DA5"/>
<path d="M576.361 340.316H550.18V366.477H576.361V340.316Z" fill="#812DA5"/>
<path d="M576.361 314.156H550.18V340.363H576.361V314.156Z" fill="#812DA5"/>
<path d="M576.361 235.629H550.18V261.789H576.361V235.629Z" fill="#812DA5"/>
<path d="M576.361 183.261H550.18V209.422H576.361V183.261Z" fill="#812DA5"/>
<path d="M576.361 157.055H550.18V183.215H576.361V157.055Z" fill="#812DA5"/>
<path d="M550.228 366.523H524V392.684H550.228V366.523Z" fill="#812DA5"/>
<path d="M550.228 314.156H524V340.363H550.228V314.156Z" fill="#812DA5"/>
<path d="M550.228 209.422H524V235.629H550.228V209.422Z" fill="#812DA5"/>
<path d="M550.228 157.055H524V183.215H550.228V157.055Z" fill="#812DA5"/>
<path d="M550.228 130.895H524V157.055H550.228V130.895Z" fill="#812DA5"/>
<path d="M523.953 209.422H497.771V235.629H523.953V209.422Z" fill="#812DA5"/>
<path d="M471.59 78.5273H445.408V104.688H471.59V78.5273Z" fill="#812DA5"/>
<path d="M445.408 104.734H419.18V130.941H445.408V104.734Z" fill="#812DA5"/>
<path d="M445.408 78.5273H419.18V104.688H445.408V78.5273Z" fill="#812DA5"/>
<path d="M419.181 130.895H393V157.055H419.181V130.895Z" fill="#812DA5"/>
<path d="M419.181 78.5273H393V104.688H419.181V78.5273Z" fill="#812DA5"/>
<path d="M393 287.949H366.818V314.109H393V287.949Z" fill="white"/>
<path d="M393 130.895H366.818V157.055H393V130.895Z" fill="#812DA5"/>
<path d="M393 78.5273H366.818V104.688H393V78.5273Z" fill="#812DA5"/>
<path d="M366.771 261.789H340.59V287.949H366.771V261.789Z" fill="white"/>
<path d="M366.771 209.422H340.59V235.629H366.771V209.422Z" fill="#812DA5"/>
<path d="M366.771 78.5273H340.59V104.688H366.771V78.5273Z" fill="#812DA5"/>
<path d="M340.636 287.949H314.408V314.109H340.636V287.949Z" fill="white"/>
<path d="M340.636 183.261H314.408V209.422H340.636V183.261Z" fill="#812DA5"/>
<path d="M340.636 104.734H314.408V130.941H340.636V104.734Z" fill="#812DA5"/>
<path d="M314.361 261.789H288.18V287.949H314.361V261.789Z" fill="white"/>
<path d="M314.361 157.055H288.18V183.215H314.361V157.055Z" fill="#812DA5"/>
<path d="M314.361 104.734H288.18V130.941H314.361V104.734Z" fill="#812DA5"/>
<path d="M288.181 130.895H262V157.055H288.181V130.895Z" fill="#812DA5"/>
<path d="M262 314.156H235.818V340.363H262V314.156Z" fill="#232323"/>
<path d="M262 287.949H235.818V314.109H262V287.949Z" fill="#232323"/>
<path d="M262 183.261H235.818V209.422H262V183.261Z" fill="#812DA5"/>
<path d="M262 157.055H235.818V183.215H262V157.055Z" fill="#812DA5"/>
<path d="M262 130.895H235.818V157.055H262V130.895Z" fill="#812DA5"/>
<path d="M235.818 340.316H209.59V366.477H235.818V340.316Z" fill="#232323"/>
<path d="M183.361 287.949H157.18V314.109H183.361V287.949Z" fill="white"/>
<path d="M157.181 261.789H131V287.949H157.181V261.789Z" fill="white"/>
<path d="M131.047 287.949H104.818V314.109H131.047V287.949Z" fill="white"/>
<path d="M104.771 261.789H78.5898V287.949H104.771V261.789Z" fill="white"/>
<path d="M288.181 0H262V26.207H288.181V0Z" fill="#C40F06"/>
<path d="M288.181 26.2068H262V52.3669H288.181V26.2068Z" fill="#C40F06"/>
<path d="M288.181 52.3672H262V78.5273H288.181V52.3672Z" fill="#C40F06"/>
<path d="M314.363 52.3672H288.182V78.5273H314.363V52.3672Z" fill="#E0C70E"/>
<path d="M288.181 78.5273H262V104.688H288.181V78.5273Z" fill="#E0C70E"/>
<path d="M314.363 78.5273H288.182V104.688H314.363V78.5273Z" fill="#3FAA00"/>
<path d="M288.181 104.734H262V130.941H288.181V104.734Z" fill="#3FAA00"/>
<path d="M314.363 104.734H288.182V130.941H314.363V104.734Z" fill="#00B6C4"/>
<path d="M288.181 130.895H262V157.055H288.181V130.895Z" fill="#00B6C4"/>
<path d="M314.363 130.895H288.182V157.055H314.363V130.895Z" fill="#0054CE"/>
<path d="M288.181 157.055H262V183.215H288.181V157.055Z" fill="#0054CE"/>
<path d="M314.363 157.055H288.182V183.215H314.363V157.055Z" fill="#6400CE"/>
</g>
<defs>
<clipPath id="clip0_0_227">
<rect width="786" height="733" fill="white"/>
</clipPath>
</defs>
</svg>
