<svg width="120" height="120" viewBox="0 0 120 120" fill="none" xmlns="http://www.w3.org/2000/svg">
<rect width="120" height="120" fill="#CE0002"/>
<path d="M53.7452 66.1V68H46.6852V54H53.5452V55.9H48.7052V59.96H53.1652V61.82H48.7052V66.1H53.7452ZM55.9039 54H57.9239L61.1439 61.14C61.3839 61.6733 61.8106 62.7 62.4239 64.22L62.4839 64.18C62.4039 63.5 62.3372 62.7 62.2839 61.78C62.2306 60.86 62.2039 60.0867 62.2039 59.46V54H64.2039V68H62.1839L59.0639 61.14C58.4906 59.7133 58.0439 58.58 57.7239 57.74L57.6639 57.78C57.7306 58.4733 57.7839 59.2867 57.8239 60.22C57.8772 61.14 57.9039 61.9333 57.9039 62.6V68H55.9039V54ZM70.7377 68.22C69.4577 68.22 68.4443 67.84 67.6977 67.08C66.9643 66.32 66.5977 65.24 66.5977 63.84V58.14C66.5977 56.74 66.9577 55.6667 67.6777 54.92C68.411 54.16 69.4177 53.78 70.6977 53.78C71.951 53.78 72.931 54.1467 73.6377 54.88C74.3443 55.6133 74.7243 56.6667 74.7777 58.04H72.7777C72.7377 57.24 72.5443 56.6533 72.1977 56.28C71.851 55.9067 71.351 55.72 70.6977 55.72C69.3377 55.72 68.6577 56.5333 68.6577 58.16V63.84C68.6577 64.6667 68.8377 65.28 69.1977 65.68C69.571 66.08 70.091 66.28 70.7577 66.28C71.4377 66.28 71.9643 66.0867 72.3377 65.7C72.711 65.3133 72.8977 64.7267 72.8977 63.94V62.18H70.6777V60.38H74.8777V63.94C74.8643 65.3 74.4843 66.3533 73.7377 67.1C73.0043 67.8467 72.0043 68.22 70.7377 68.22Z" fill="white"/>
</svg>
