<svg width="121" height="67" viewBox="0 0 121 67" fill="none" xmlns="http://www.w3.org/2000/svg">
<g clip-path="url(#clip0_0_63)">
<path d="M16.9913 9.77393H14.8965V11.9847H16.9913V9.77393Z" fill="black"/>
<path d="M21.1818 9.77385H23.2766V7.67944H21.1818H19.087H16.9922V9.77385H19.087H21.1818Z" fill="black"/>
<path d="M25.4874 9.77393H23.3926V11.9847H25.4874V9.77393Z" fill="black"/>
<path d="M27.5811 11.9846H25.4863V14.079H27.5811V11.9846Z" fill="black"/>
<path d="M29.6768 9.77393H27.582V11.9847H29.6768V9.77393Z" fill="black"/>
<path d="M33.9818 7.67944H31.7706H31.5378H29.6758V9.77385H31.5378H31.7706H33.9818H36.0766V7.67944H33.9818Z" fill="black"/>
<path d="M38.1729 9.77393H36.0781V11.9847H38.1729V9.77393Z" fill="black"/>
<path d="M38.1719 11.9846V14.079V16.1734V20.4786H40.3831V16.1734V14.079V11.9846H38.1719Z" fill="black"/>
<path d="M38.1729 20.4785H36.0781V22.5729H38.1729V20.4785Z" fill="black"/>
<path d="M36.0772 22.573H33.9824V24.6674H36.0772V22.573Z" fill="black"/>
<path d="M33.9827 24.6675H31.7715V26.7619H33.9827V24.6675Z" fill="black"/>
<path d="M31.7706 26.7617H29.6758V28.8561H31.7706V26.7617Z" fill="black"/>
<path d="M29.6768 28.9727H27.582V31.0671H29.6768V28.9727Z" fill="black"/>
<path d="M27.5811 31.0669H25.4863V33.1613H27.5811V31.0669Z" fill="black"/>
<path d="M25.4874 28.9727H23.3926V31.0671H25.4874V28.9727Z" fill="black"/>
<path d="M23.3928 26.7617H21.1816V28.9725H23.3928V26.7617Z" fill="black"/>
<path d="M21.1808 24.6675H19.0859V26.7619H21.1808V24.6675Z" fill="black"/>
<path d="M19.087 22.573H16.9922V24.6674H19.087V22.573Z" fill="black"/>
<path d="M16.9913 20.4785H14.8965V22.5729H16.9913V20.4785Z" fill="black"/>
<path d="M14.8967 18.2678V16.1734V14.079V11.9846H12.6855V14.079V16.1734V18.2678V20.3623H14.8967V18.2678Z" fill="black"/>
<path d="M16.9913 11.9846H14.8965V14.079H16.9913V11.9846Z" fill="white"/>
<path d="M36.0774 11.9847V9.77393H33.9826H31.7714H31.3058H29.6765V11.9847H27.5817V14.0791H25.4869V11.9847H23.3921V9.77393H21.1809H19.0861V11.9847H16.9913V14.0791H14.8965V20.4787H16.9913V22.5731H19.0861V24.6675H21.1809V26.7619H23.3921V28.9727H25.4869V31.0671H27.5817V28.9727H29.6765V26.7619H31.7714V24.6675H33.9826V22.5731H36.0774V20.4787H38.1722V11.9847H36.0774Z" fill="#CE0002"/>
<path d="M19.087 9.77393H16.9922V11.8683H19.087V9.77393Z" fill="white"/>
<path d="M70.06 11.9846V9.77385H67.9652V7.67944H65.8703H63.7755H61.6807V9.77385H59.4695V11.9846H57.3747V9.77385H55.1635V7.67944H53.0687H50.9739H48.8791V9.77385H50.9739V11.9846H48.8791V14.079H46.7843V11.9846H48.8791V9.77385H46.7843V11.9846H44.6895V14.079V16.1734V18.2678V20.3622H46.7843V22.573H48.8791V20.3622H46.7843V18.2678H48.8791H50.9739H53.0687H55.1635H57.3747H59.4695H61.5643H63.7755H65.8703H67.9652H70.06V20.3622H67.9652V22.573H70.06V20.3622H72.2712V18.2678V16.1734V14.079V11.9846H70.06Z" fill="black"/>
<path d="M67.9659 22.573H65.8711V24.6674H67.9659V22.573Z" fill="black"/>
<path d="M65.8702 24.6675H63.7754V26.7619H65.8702V24.6675Z" fill="black"/>
<path d="M63.7757 26.7617H61.5645V28.8561H63.7757V26.7617Z" fill="black"/>
<path d="M61.5636 28.8562H59.4688V31.067H61.5636V28.8562Z" fill="black"/>
<path d="M59.4698 31.0669H57.375V33.1613H59.4698V31.0669Z" fill="black"/>
<path d="M57.3753 28.8562H55.1641V31.067H57.3753V28.8562Z" fill="black"/>
<path d="M55.1632 26.7617H53.0684V28.8561H55.1632V26.7617Z" fill="black"/>
<path d="M53.0694 24.6675H50.9746V26.7619H53.0694V24.6675Z" fill="black"/>
<path d="M50.9737 22.573H48.8789V24.6674H50.9737V22.573Z" fill="black"/>
<path d="M48.88 11.9846H46.7852V14.079H48.88V11.9846Z" fill="white"/>
<path d="M67.966 18.2678H65.8712H63.7764H61.5652H59.4704H57.3756H55.1644H53.0696H50.9748H48.88H46.7852V20.3622H48.88V22.573H50.9748V24.6674H53.0696V26.7618H55.1644V28.8562H57.3756V31.067H59.4704V28.8562H61.5652V26.7618H63.7764V24.6674H65.8712V22.573H67.966V20.3622H70.0608V18.2678H67.966Z" fill="#CE0002"/>
<path d="M50.9737 9.77393H48.8789V11.8683H50.9737V9.77393Z" fill="white"/>
<path d="M80.7686 9.89014H78.6738V11.9845H80.7686V9.89014Z" fill="black"/>
<path d="M101.949 11.9846V9.77385H99.8538V7.67944H97.759H95.6642H93.5694V9.77385H91.3582V11.9846H89.2634V9.77385H87.1686V7.7958H84.9574H84.6082H82.8626H80.7677V9.89021H82.8626V11.9846H80.7677V14.079H78.6729V11.9846H76.5781V14.079V16.1734V18.2678V20.3622H78.6729V22.573H80.7677V24.6674H82.8626V26.7618H84.2591H84.9574H85.0737V28.8562H87.1686V31.067H89.2634V33.1614H91.3582V31.067H89.2634V28.8562H87.1686V26.7618H89.2634H91.3582H93.453V28.8562H91.3582V31.067H93.453V28.8562H95.6642V26.7618H97.759V24.6674H99.8538V22.573H101.949V20.3622H104.16V18.2678V16.1734V14.079V11.9846H101.949Z" fill="black"/>
<path d="M80.7667 11.9846H78.6719V14.079H80.7667V11.9846Z" fill="white"/>
<path d="M91.3585 28.8562H89.2637V31.067H91.3585V28.8562Z" fill="#CE0002"/>
<path d="M89.2628 26.7617H87.168V28.8561H89.2628V26.7617Z" fill="#CE0002"/>
<path d="M91.3585 26.7617H89.2637V28.8561H91.3585V26.7617Z" fill="#CE0002"/>
<path d="M93.4522 26.7617H91.3574V28.8561H93.4522V26.7617Z" fill="#CE0002"/>
<path d="M82.8624 9.89014H80.7676V11.9845H82.8624V9.89014Z" fill="white"/>
<path d="M12.1039 51.0802V49.8003H10.8238V51.0802V52.3601V53.6401V54.92V56.1999V57.4798V58.7597H12.1039V60.0396H10.8238H9.54362H8.26345H6.98329V58.7597H8.26345V57.4798V56.1999V54.92V53.6401V52.3601V51.0802V49.8003H6.98329V51.0802H5.70312V49.8003V48.5204V47.2405H6.98329H8.26345H9.54362H10.8238H12.1039H13.3841V48.5204V49.8003V51.0802H12.1039Z" fill="black"/>
<path d="M22.1126 59.9233H20.8324H19.5522H18.2721H16.9919V58.6434H15.8281V57.3634V56.0835V54.8036V53.5237V52.2438H17.1083V50.9639H18.3885H19.6686H20.9488H22.2289H23.5091V52.2438H24.7893V53.5237V54.8036V56.0835V57.3634V58.6434H23.5091V59.9233H22.1126ZM20.9488 58.6434H22.2289V57.3634V56.0835V54.8036V53.5237V52.2438H20.9488H19.6686H18.3885V53.5237V54.8036V56.0835V57.3634V58.6434H19.6686H20.9488Z" fill="black"/>
<path d="M32.2367 63.6467H30.9565H29.7927H28.5126H27.2324V62.3667H28.5126H29.7927H30.9565H32.2367V61.2032H33.5169V59.9233H32.2367H30.9565H29.7927H28.5126V58.6434H27.2324V57.3634V56.0835V54.8036V53.5237V52.2438V50.9639H28.5126H29.7927V52.2438V53.5237V54.8036V56.0835V57.3634V58.6434H30.9565H32.2367H33.5169V57.3634V56.0835V54.8036V53.5237V52.2438V50.9639H34.797H36.0772V52.2438V53.5237V54.8036V56.0835V57.3634V58.6434V59.9233V61.2032H34.797V62.4831H33.5169V63.763L32.2367 63.6467Z" fill="black"/>
<path d="M43.6434 59.9234H42.3633V58.6434V57.3635H43.6434H44.9236V58.6434V59.9234H43.6434Z" fill="black"/>
<path d="M56.2114 59.9233H54.9312H53.651H52.3709H51.0907V58.6434H49.8105V57.3634V56.0835H51.0907H52.3709V57.3634V58.6434H53.651H54.9312H56.2114V57.3634V56.0835V54.8036H54.9312V53.5237H53.651H52.3709V52.2438H51.0907V50.9639H49.8105V49.684V48.404H51.0907V47.2405H52.3709H53.651H54.9312H56.2114H57.4915V48.5204H58.7717V49.8003V51.0802H57.4915H56.2114V49.8003V48.5204H54.9312H53.651H52.3709V49.8003V51.0802H53.651V52.3601H54.9312H56.2114V53.6401H57.4915V54.92H58.7717V56.1999V57.4798V58.7597H57.4915V60.0396L56.2114 59.9233Z" fill="black"/>
<path d="M67.6157 59.9233H66.3355H65.0553V58.6434H63.7752V57.3634V56.0835V54.8036V53.5237V52.2438H62.495H61.2148V50.9639H62.495H63.7752V49.684V48.404H65.0553V47.2405H66.3355V48.5204V49.8003V51.0802H67.6157H68.8958V52.3601H67.6157H66.3355V53.6401V54.92V56.1999V57.4798V58.7597H67.6157V57.4798H68.8958H70.176V58.7597H68.8958V60.0396L67.6157 59.9233Z" fill="black"/>
<path d="M76.4616 59.9233H75.1814H73.9013H72.6211V58.6434H73.9013V57.3634V56.0835V54.8036V53.5237V52.2438H72.6211V50.9639H73.9013H75.1814V52.2438H76.4616V50.9639H77.7418H79.0219H80.3021V52.2438H81.5822V53.5237V54.8036H80.3021H79.0219V53.5237V52.2438H77.7418V53.5237H76.4616V54.8036V56.0835V57.3634V58.6434H77.7418V59.9233H76.4616Z" fill="black"/>
<path d="M90.311 59.9233H89.0308H87.7507H86.4705H85.1903V58.6434H83.9102V57.3634V56.0835V54.8036V53.5237V52.2438H85.1903V50.9639H86.4705H87.7507H89.0308H90.311H91.5911V52.2438H92.8713V53.5237V54.8036H91.5911H90.311H89.0308H87.7507H86.4705V56.0835V57.3634V58.6434H87.7507H89.0308H90.311V57.3634H91.5911H92.8713V58.6434H91.5911V59.9233H90.311ZM89.0308 53.6401H90.311V52.3601H89.0308H87.7507H86.4705V53.6401H87.7507H89.0308Z" fill="black"/>
<path d="M102.995 59.9233H101.715V58.6434H100.435V57.3634V56.0835V54.8036H99.1549H97.8748V56.0835V57.3634V58.6434H99.1549H100.435V59.9233H99.1549H97.8748H96.5946V58.6434H95.3145V57.3634V56.0835V54.8036H96.5946V53.5237H97.8748H99.1549H100.435V52.2438H99.1549H97.8748H96.5946V50.9639H97.8748H99.1549H100.435H101.715V52.2438H102.995V53.5237V54.8036V56.0835V57.3634V58.6434H104.276V59.9233H102.995Z" fill="black"/>
<path d="M110.561 58.6434V57.3634V56.0835V54.8036V53.5237H109.281V54.8036V56.0835V57.3634V58.6434V59.9233H108.001H106.721V58.6434V57.3634V56.0835V54.8036V53.5237V52.2438V50.9639H108.001H109.281H110.561V52.2438H111.841V50.9639H113.122H114.402V52.2438H115.682V53.5237V54.8036V56.0835V57.3634V58.6434V59.9233H114.402H113.122V58.6434V57.3634V56.0835V54.8036V53.5237H111.841V54.8036V56.0835V57.3634V58.6434H110.561Z" fill="black"/>
</g>
<defs>
<clipPath id="clip0_0_63">
<rect width="120.219" height="66.7883" fill="white"/>
</clipPath>
</defs>
</svg>
