<svg width="26" height="25" viewBox="0 0 26 25" fill="none" xmlns="http://www.w3.org/2000/svg">
<path fill-rule="evenodd" clip-rule="evenodd" d="M6.38608 2.08264C5.28135 2.08264 4.22187 2.52149 3.44071 3.30265C2.65955 4.08381 2.2207 5.14329 2.2207 6.24802V18.7442C2.2207 19.8489 2.65955 20.9084 3.44071 21.6895C4.22187 22.4707 5.28135 22.9095 6.38608 22.9095H18.8822C19.9869 22.9095 21.0464 22.4707 21.8276 21.6895C22.6087 20.9084 23.0476 19.8489 23.0476 18.7442V6.24802C23.0476 5.14329 22.6087 4.08381 21.8276 3.30265C21.0464 2.52149 19.9869 2.08264 18.8822 2.08264H6.38608ZM4.30339 6.24802C4.30339 5.69566 4.52282 5.16592 4.9134 4.77534C5.30398 4.38476 5.83372 4.16533 6.38608 4.16533H18.8822C19.4346 4.16533 19.9643 4.38476 20.3549 4.77534C20.7455 5.16592 20.9649 5.69566 20.9649 6.24802V18.7442C20.9649 19.2965 20.7455 19.8263 20.3549 20.2168C19.9643 20.6074 19.4346 20.8268 18.8822 20.8268H6.38608C5.83372 20.8268 5.30398 20.6074 4.9134 20.2168C4.52282 19.8263 4.30339 19.2965 4.30339 18.7442V6.24802ZM9.51011 11.4547C9.51011 11.1786 9.4004 10.9137 9.20511 10.7184C9.00982 10.5231 8.74495 10.4134 8.46877 10.4134C8.19259 10.4134 7.92772 10.5231 7.73243 10.7184C7.53714 10.9137 7.42742 11.1786 7.42742 11.4547V17.7028C7.42742 17.979 7.53714 18.2439 7.73243 18.4391C7.92772 18.6344 8.19259 18.7442 8.46877 18.7442C8.74495 18.7442 9.00982 18.6344 9.20511 18.4391C9.4004 18.2439 9.51011 17.979 9.51011 17.7028V11.4547ZM10.0308 7.81004C10.0308 8.22431 9.86622 8.62161 9.57328 8.91455C9.28035 9.20748 8.88304 9.37205 8.46877 9.37205C8.0545 9.37205 7.65719 9.20748 7.36426 8.91455C7.07132 8.62161 6.90675 8.22431 6.90675 7.81004C6.90675 7.39576 7.07132 6.99846 7.36426 6.70552C7.65719 6.41259 8.0545 6.24802 8.46877 6.24802C8.88304 6.24802 9.28035 6.41259 9.57328 6.70552C9.86622 6.99846 10.0308 7.39576 10.0308 7.81004V7.81004ZM12.6341 10.4134C12.9882 10.4134 13.3006 10.5904 13.488 10.8591C14.0248 10.5666 14.6263 10.4133 15.2375 10.4134C17.4868 10.4134 18.8822 12.419 18.8822 14.132V17.7028C18.8822 17.979 18.7725 18.2439 18.5772 18.4391C18.3819 18.6344 18.117 18.7442 17.8409 18.7442C17.5647 18.7442 17.2998 18.6344 17.1045 18.4391C16.9092 18.2439 16.7995 17.979 16.7995 17.7028V14.131C16.7995 13.3312 16.1122 12.495 15.2375 12.495C14.6918 12.495 14.0889 12.7918 13.6755 13.4979V17.7028C13.6755 17.979 13.5658 18.2439 13.3705 18.4391C13.1752 18.6344 12.9103 18.7442 12.6341 18.7442C12.358 18.7442 12.0931 18.6344 11.8978 18.4391C11.7025 18.2439 11.5928 17.979 11.5928 17.7028V11.4547C11.5928 11.1786 11.7025 10.9137 11.8978 10.7184C12.0931 10.5231 12.358 10.4134 12.6341 10.4134V10.4134Z" fill="#C4B6B6"/>
</svg>
