<svg width="26" height="25" viewBox="0 0 26 25" fill="none" xmlns="http://www.w3.org/2000/svg">
<path fill-rule="evenodd" clip-rule="evenodd" d="M3.93523 12.4961C3.93586 10.6129 4.53713 8.77892 5.65163 7.26085C6.76614 5.74279 8.33577 4.61976 10.1323 4.05503C11.9289 3.49029 13.8588 3.51329 15.6414 4.12067C17.424 4.72806 18.9665 5.88817 20.0445 7.43236C21.1225 8.97655 21.6799 10.8243 21.6356 12.707C21.5914 14.5898 20.9478 16.4093 19.7985 17.9012C18.6491 19.393 17.0539 20.4794 15.2447 21.0024C13.4355 21.5254 11.5067 21.4577 9.73864 20.8092C10.3394 19.1988 10.9222 17.5819 11.4871 15.9586C12.0848 16.3855 12.8564 16.6615 13.828 16.6615C15.843 16.6615 17.9673 15.3338 18.4932 12.7002C19.1566 9.39396 16.5084 6.24806 12.7867 6.24806C11.2215 6.24806 9.68241 6.87703 8.53068 7.87464C7.37687 8.87537 6.53859 10.3166 6.53859 11.9755C6.53859 12.7825 6.78226 13.6812 7.36229 14.2727C7.55885 14.4661 7.82354 14.5747 8.09935 14.5749C8.37516 14.5751 8.64 14.4669 8.83683 14.2737C9.02825 14.0824 9.13768 13.8241 9.14196 13.5536C9.14623 13.283 9.04502 13.0214 8.85974 12.8241C8.04125 11.8036 9.12008 10.1208 9.89484 9.44915C10.6998 8.75145 11.763 8.33075 12.7867 8.33075C15.314 8.33075 16.8312 10.3916 16.4522 12.292C16.1356 13.8686 14.936 14.5788 13.828 14.5788C12.9762 14.5788 12.518 14.2196 12.2243 13.7541C12.3847 13.2501 12.5211 12.7919 12.619 12.4191C12.8189 11.6516 12.9397 10.7258 12.2493 10.15C11.7359 9.72303 11.1299 9.81675 10.7592 10.0031C10.0687 10.3468 9.66262 11.1528 9.66262 11.9755C9.66262 12.4347 9.73447 13.147 9.99273 13.8832C9.32075 15.8874 8.61322 17.8794 7.87047 19.8584C6.65901 19.0502 5.66592 17.9552 4.97941 16.6709C4.2929 15.3865 3.93422 13.9525 3.93523 12.4961V12.4961ZM12.7867 1.56201C6.7479 1.56201 1.85254 6.45737 1.85254 12.4961C1.85254 18.5349 6.7479 23.4302 12.7867 23.4302C18.8254 23.4302 23.7208 18.5349 23.7208 12.4961C23.7208 6.45737 18.8254 1.56201 12.7867 1.56201Z" fill="#C4B6B6"/>
</svg>
