<svg width="26" height="25" viewBox="0 0 26 25" fill="none" xmlns="http://www.w3.org/2000/svg">
<path fill-rule="evenodd" clip-rule="evenodd" d="M7.97382 4.23822C9.20469 2.77618 10.9479 2.08264 12.9223 2.08264C14.9425 2.08264 16.6753 2.89906 17.8833 4.38714C18.9558 5.70964 19.5629 7.49451 19.6733 9.56991L19.7691 9.58449L19.79 9.58761C19.967 9.6126 20.1784 9.64384 20.3981 9.68654C21.2114 9.84378 22.5995 10.2416 23.0775 11.7317C23.317 12.4805 23.1972 13.174 22.7776 13.7238C22.4162 14.1976 21.8997 14.4715 21.53 14.6371C21.3468 14.7204 21.1635 14.7912 21.0094 14.8506C21.3697 15.8253 21.9966 16.8281 22.6901 17.7361C23.343 18.5921 23.1702 19.6762 22.8328 20.3832C22.4943 21.0913 21.7633 21.9005 20.699 21.9463C20.0972 21.9723 19.4651 22.0348 18.8361 22.1493C18.5518 22.2014 18.2165 22.3149 17.7999 22.4867C17.5511 22.5888 17.323 22.6908 17.0773 22.8002C16.8815 22.8877 16.6753 22.9793 16.4368 23.0814C15.458 23.5021 14.2552 23.9509 12.9223 23.9509C11.5894 23.9509 10.3866 23.5021 9.40775 23.0814C9.16928 22.9793 8.96206 22.8877 8.76733 22.8002C8.52791 22.6923 8.28699 22.5878 8.04463 22.4867C7.6281 22.3149 7.29278 22.2004 7.0085 22.1483C6.37952 22.0338 5.74743 21.9723 5.14449 21.9463C4.08128 21.9005 3.34921 21.0913 3.01182 20.3832C2.67442 19.6762 2.50156 18.5921 3.15448 17.7361C3.85218 16.8218 4.48219 15.8117 4.84146 14.8308C4.68381 14.7688 4.5279 14.7024 4.37389 14.6319C4.01359 14.4632 3.52416 14.1935 3.16281 13.7415C2.75981 13.2354 2.58174 12.5825 2.74003 11.8348C3.07742 10.2343 4.58321 9.83545 5.37879 9.6855C5.60476 9.64384 5.82449 9.6126 6.00881 9.58657L6.04525 9.58136L6.17021 9.56366C6.27331 7.3508 6.87625 5.54095 7.97382 4.23822V4.23822ZM9.56708 5.57948C8.77253 6.52189 8.23624 8.03705 8.23624 10.2655V10.3738L8.21333 10.4811C8.09774 11.0267 7.67808 11.2819 7.46981 11.3798C7.25113 11.4829 7.01474 11.5339 6.84813 11.5651C6.68568 11.5953 6.50449 11.6203 6.34308 11.6422L6.29518 11.6495C6.11716 11.673 5.93974 11.7008 5.76305 11.7328C4.96642 11.8817 4.81542 12.0795 4.7769 12.2639C4.74982 12.3961 4.77377 12.4232 4.78731 12.4378L4.79147 12.4419C4.84667 12.5117 4.97996 12.6158 5.25695 12.745C5.38608 12.8054 5.5225 12.8606 5.67349 12.922L5.71098 12.9366C5.84323 12.9886 6.00047 13.0522 6.13897 13.1178C6.27539 13.1802 6.50344 13.2948 6.69713 13.4802C6.92206 13.6957 7.19386 14.1164 7.0616 14.6715C6.68256 16.2658 5.72556 17.8007 4.81126 18.9982C4.79735 19.0333 4.79165 19.071 4.7946 19.1086C4.7946 19.2075 4.82271 19.3429 4.8904 19.4856C4.95913 19.6283 5.0466 19.7376 5.12783 19.8032C5.19447 19.8573 5.23196 19.8657 5.23613 19.8657C5.91404 19.8948 6.64194 19.9656 7.3813 20.1C7.88427 20.1916 8.38099 20.3728 8.83918 20.5623C9.09223 20.6665 9.38276 20.7956 9.66496 20.9206C9.86178 21.008 10.0544 21.0934 10.2273 21.1674C11.1635 21.5683 12.0371 21.8682 12.9223 21.8682C13.8074 21.8682 14.6822 21.5683 15.6173 21.1674C15.7902 21.0934 15.9828 21.007 16.1796 20.9206C16.4608 20.7956 16.7524 20.6665 17.0044 20.5623C17.4626 20.3728 17.9593 20.1916 18.4622 20.1C19.2016 19.9646 19.9305 19.8948 20.6074 19.8657C20.6137 19.8657 20.6501 19.8573 20.7168 19.8032C20.8175 19.7153 20.8984 19.607 20.9542 19.4856C21.0126 19.3682 21.0453 19.2397 21.05 19.1086C21.05 19.0118 21.026 18.9889 21.0344 19.0003C20.1201 17.8028 19.162 16.2668 18.7819 14.6715C18.6414 14.0779 18.9631 13.6509 19.1849 13.4531C19.3828 13.2781 19.614 13.1688 19.7545 13.1074C19.8951 13.0449 20.0534 12.9855 20.1888 12.9345L20.2388 12.9147C20.3981 12.8553 20.5408 12.8002 20.6751 12.7387C20.9563 12.6127 21.076 12.5159 21.1166 12.4669C21.113 12.4333 21.1056 12.4001 21.0948 12.368C21 12.0723 20.7324 11.8723 20.0013 11.7307C19.8358 11.6995 19.6681 11.6745 19.4911 11.6474L19.4515 11.6422C19.2867 11.6198 19.1225 11.5934 18.959 11.563C18.7468 11.5259 18.5406 11.4607 18.3456 11.3694C18.1269 11.2611 17.7416 11.0018 17.6312 10.4811L17.6083 10.3738V10.2645C17.6083 8.23386 17.0804 6.70309 16.266 5.70027C15.4694 4.71724 14.3396 4.16533 12.9223 4.16533C11.4592 4.16533 10.3398 4.66101 9.56604 5.57948H9.56708Z" fill="#C4B6B6"/>
</svg>
